<svg width="23" height="20" viewBox="0 0 23 20" fill="none" xmlns="http://www.w3.org/2000/svg">
<path d="M11.5789 0.25001C6.78487 0.25001 2.84487 3.91301 2.46087 8.58301H1.49987C1.35118 8.58294 1.20582 8.62707 1.08227 8.70979C0.958713 8.79251 0.862534 8.91008 0.805947 9.04758C0.749361 9.18508 0.734922 9.3363 0.764465 9.48202C0.794007 9.62775 0.866198 9.7614 0.971865 9.86601L2.65187 11.532C2.79232 11.6712 2.98209 11.7494 3.17987 11.7494C3.37764 11.7494 3.56741 11.6712 3.70787 11.532L5.38787 9.86601C5.49353 9.7614 5.56572 9.62775 5.59527 9.48202C5.62481 9.3363 5.61037 9.18508 5.55378 9.04758C5.4972 8.91008 5.40102 8.79251 5.27746 8.70979C5.15391 8.62707 5.00855 8.58294 4.85987 8.58301H3.96687C4.34687 4.75201 7.60487 1.75001 11.5789 1.75001C12.8891 1.74748 14.178 2.08107 15.3225 2.71888C16.467 3.35669 17.4288 4.27741 18.1159 5.39301C18.1661 5.47958 18.2332 5.55521 18.3132 5.61544C18.3932 5.67566 18.4844 5.71928 18.5815 5.7437C18.6785 5.76812 18.7795 5.77286 18.8785 5.75764C18.9774 5.74242 19.0723 5.70755 19.1576 5.65507C19.2428 5.6026 19.3167 5.53359 19.3749 5.45211C19.433 5.37063 19.4743 5.27834 19.4962 5.18066C19.5181 5.08298 19.5203 4.9819 19.5025 4.88338C19.4848 4.78486 19.4475 4.69089 19.3929 4.60701C18.5717 3.27342 17.4223 2.17267 16.0544 1.40988C14.6866 0.64709 13.145 0.247753 11.5789 0.25001ZM20.3409 8.46701C20.2005 8.32838 20.0112 8.25065 19.8139 8.25065C19.6166 8.25065 19.4272 8.32838 19.2869 8.46701L17.5999 10.133C17.4939 10.2375 17.4214 10.3712 17.3917 10.517C17.3619 10.6628 17.3762 10.8141 17.4327 10.9518C17.4892 11.0894 17.5853 11.2072 17.709 11.29C17.8326 11.3729 17.9781 11.4171 18.1269 11.417H19.0259C18.6439 15.247 15.3749 18.25 11.3819 18.25C10.0676 18.2534 8.77425 17.9203 7.6251 17.2824C6.47594 16.6446 5.50918 15.7232 4.81687 14.606C4.76512 14.5222 4.69738 14.4493 4.61749 14.3917C4.5376 14.334 4.44713 14.2926 4.35125 14.2699C4.25538 14.2472 4.15597 14.2436 4.0587 14.2593C3.96143 14.275 3.86821 14.3098 3.78437 14.3615C3.61503 14.466 3.49413 14.6335 3.44828 14.8271C3.40243 15.0208 3.43537 15.2247 3.53987 15.394C4.36662 16.729 5.5213 17.8301 6.89397 18.5926C8.26665 19.3551 9.81164 19.7535 11.3819 19.75C16.1899 19.75 20.1469 16.09 20.5319 11.417H21.4999C21.6487 11.4171 21.7941 11.3729 21.9178 11.29C22.0414 11.2072 22.1376 11.0894 22.1941 10.9518C22.2506 10.8141 22.2648 10.6628 22.2351 10.517C22.2053 10.3712 22.1328 10.2375 22.0269 10.133L20.3409 8.46701Z" fill="#EC0000"/>
</svg>
