<svg width="48" height="48" viewBox="0 0 48 48" fill="none" xmlns="http://www.w3.org/2000/svg">
<path d="M32.2684 18.9084C33.0172 20.13 33.3917 21.5397 33.4853 22.9494C40.4119 24.7349 45.0921 28.5879 44.9986 32.8169C44.9986 39.0192 35.8254 44 24.4992 44C13.1732 44 4 39.0192 4 32.8169C4 28.4 8.77382 24.547 15.607 22.7615C15.607 24.4531 15.9814 26.1446 16.8237 27.6482L23.2824 38.8313C23.7505 39.6771 24.1248 40.6169 24.3121 41.5567L24.5929 41.0867C26.1841 38.3615 26.1841 34.8844 24.5929 32.159L19.4446 23.2313C17.8534 20.412 17.8534 17.0289 19.4446 14.3036L19.7254 13.8338C19.9127 14.7735 20.2871 15.7133 20.7551 16.559L23.7505 21.8217L28.4307 29.9976C28.8986 30.8433 29.2731 31.7831 29.4604 32.7229L29.7411 32.253C31.3324 29.5277 31.3324 26.0506 29.7411 23.3254L24.5929 14.3976C23.0017 11.6723 23.0017 8.19515 24.5929 5.46995L24.8737 5C25.061 5.93975 25.4354 6.8795 25.9033 7.72535L32.2684 18.9084Z" fill="#EA1D25"/>
</svg>
