<svg xmlns="http://www.w3.org/2000/svg" width="14.825" height="13.189" viewBox="0 0 14.825 13.189">
  <path id="heart" d="M13.649,1.291A3.986,3.986,0,0,0,10.684,0,3.729,3.729,0,0,0,8.354.8a4.766,4.766,0,0,0-.942.983A4.763,4.763,0,0,0,6.471.8,3.729,3.729,0,0,0,4.141,0,3.987,3.987,0,0,0,1.176,1.291,4.634,4.634,0,0,0,0,4.455,5.518,5.518,0,0,0,1.47,8.067a31.352,31.352,0,0,0,3.681,3.455c.51.435,1.088.927,1.688,1.452a.87.87,0,0,0,1.146,0c.6-.525,1.179-1.018,1.689-1.453a31.338,31.338,0,0,0,3.68-3.454,5.517,5.517,0,0,0,1.47-3.612A4.633,4.633,0,0,0,13.649,1.291Zm0,0" fill="#f8593d"/>
</svg>
