<svg width="41" height="41" viewBox="0 0 41 41" fill="none" xmlns="http://www.w3.org/2000/svg">
<path d="M8.50012 19.75H39.7501C39.7501 22.1687 37.7939 24.125 35.3751 24.125H5.37512C2.95637 24.125 1.00012 22.1687 1.00012 19.75H3.50012" stroke="white" stroke-width="2" stroke-linecap="round" stroke-linejoin="round"/>
<path d="M2.29388 19.75C2.95638 10.7188 10.8001 4.125 20.3751 4.125C29.9501 4.125 37.7876 10.7188 38.4564 19.75" stroke="white" stroke-width="2" stroke-linecap="round" stroke-linejoin="round"/>
<path d="M9.12512 13.9875C10.3751 12.25 12.2501 10.375 14.1251 9.75" stroke="white" stroke-width="2" stroke-linecap="round" stroke-linejoin="round"/>
<path d="M17.2501 39.75C17.2501 39.75 20.6126 35.2312 23.5001 33.5C26.6251 31.625 31.0001 24.75 35.3751 24.125" stroke="white" stroke-width="2" stroke-miterlimit="10" stroke-linecap="round"/>
<path d="M10.3751 24.75C10.3751 24.75 9.89387 27.1437 10.1939 29.4125C10.2751 30.0125 10.0314 30.6 9.60012 31.025C8.53762 32.0625 6.80637 34.35 7.24387 37.875L5.36887 39.75" stroke="white" stroke-width="2" stroke-linecap="round" stroke-linejoin="round"/>
<path d="M13.5001 24.125L13.9751 26.025C14.0751 26.4188 14.1251 26.8312 14.1251 27.2375V29.75C14.1251 30.7875 14.9626 31.625 16.0001 31.625H16.6251C16.6251 31.625 17.8751 24.125 20.3751 24.125" stroke="white" stroke-width="2" stroke-linecap="round" stroke-linejoin="round"/>
<path d="M16.6251 31.625C16.6251 31.625 12.2939 32.5875 11.2314 36.625" stroke="white" stroke-width="2" stroke-miterlimit="10" stroke-linecap="round"/>
<path d="M22.8751 24.125C22.8751 24.125 21.0001 27.25 21.0001 29.75L28.5001 24.125" stroke="white" stroke-width="2" stroke-linecap="round" stroke-linejoin="round"/>
<path d="M17.8751 3.5C17.8751 2.11875 18.9939 1 20.3751 1C21.7564 1 22.8751 2.11875 22.8751 3.5" stroke="white" stroke-width="2" stroke-linecap="round" stroke-linejoin="round"/>
</svg>
