<svg width="29" height="39" viewBox="0 0 29 39" fill="none" xmlns="http://www.w3.org/2000/svg">
<path d="M1.14021 24.5074C1.60546 28.5833 3.16945 31.9456 5.62333 34.3334C10.4708 39.052 18.0273 39.052 22.8748 34.3334C25.3287 31.9456 26.8915 28.5833 27.3579 24.5074C28.2919 16.3255 24.614 1 14.2485 1C3.88299 1 0.205065 16.3255 1.14021 24.5074Z" stroke="white" stroke-width="2" stroke-linecap="round" stroke-linejoin="round"/>
<path d="M21.4456 13.256C22.2681 9.28086 19.7124 5.39163 15.7372 4.56914C11.7621 3.74666 7.87288 6.30238 7.0504 10.2775C6.22791 14.2526 8.78363 18.1419 12.7588 18.9643C16.7339 19.7868 20.6231 17.2311 21.4456 13.256Z" stroke="white" stroke-width="2" stroke-linecap="round" stroke-linejoin="round"/>
<path d="M12.3225 4.8916C12.3225 4.8916 11.9907 8.45699 16.7152 8.40594C16.7152 8.40594 15.1198 6.66559 15.5549 4.99254" stroke="white" stroke-width="2" stroke-linecap="round" stroke-linejoin="round"/>
<path d="M19.1481 19.0669L12.0522 26.3659" stroke="white" stroke-width="2" stroke-linecap="round" stroke-linejoin="round"/>
<path d="M14.6372 22.8691L10.5311 19.5229" stroke="white" stroke-width="2" stroke-linecap="round" stroke-linejoin="round"/>
<path d="M10.8606 12.7321C11.0176 12.7321 11.1449 12.6048 11.1449 12.4478C11.1449 12.2908 11.0176 12.1636 10.8606 12.1636C10.7036 12.1636 10.5764 12.2908 10.5764 12.4478C10.5764 12.6048 10.7036 12.7321 10.8606 12.7321Z" stroke="white" stroke-width="2" stroke-linecap="round" stroke-linejoin="round"/>
<path d="M17.9207 12.4478C17.9207 12.6045 17.7942 12.7321 17.6364 12.7321C17.4786 12.7321 17.3522 12.6056 17.3522 12.4478C17.3522 12.29 17.4786 12.1636 17.6364 12.1636C17.7942 12.1636 17.9207 12.29 17.9207 12.4478Z" stroke="white" stroke-width="2" stroke-linecap="round" stroke-linejoin="round"/>
</svg>
