<svg width="40" height="29" viewBox="0 0 40 29" fill="none" xmlns="http://www.w3.org/2000/svg">
<g clip-path="url(#clip0_842_5409)">
<g clip-path="url(#clip1_842_5409)">
<g clip-path="url(#clip2_842_5409)">
<path d="M7.06997 22.3799H3.74997C2.92997 22.3799 2.22997 21.6899 2.22997 20.8599V3.34987C2.22997 2.50987 2.91997 1.73987 3.74997 1.73987C17.36 1.73987 24.59 1.83987 31.51 1.70987C34.11 1.65987 38.51 3.69987 38.51 13.2399V20.8499C38.51 21.6799 37.81 22.3699 36.99 22.3699H33.66M26.91 22.3699H13.82M2.21997 12.8899C6.16997 12.8899 35.6 12.8899 38.39 12.8699M14.16 2.85987C14.16 3.85987 14.16 11.3399 14.15 12.0499M26.14 2.85987C26.14 3.85987 26.14 11.3399 26.13 12.0499M30.29 21.2099C32.02 21.2099 33.42 22.6099 33.42 24.3399C33.42 26.0699 32.02 27.4699 30.29 27.4699C28.56 27.4699 27.16 26.0699 27.16 24.3399C27.16 22.6099 28.56 21.2099 30.29 21.2099ZM10.45 21.2099C12.18 21.2099 13.58 22.6099 13.58 24.3399C13.58 26.0699 12.18 27.4699 10.45 27.4699C8.71997 27.4699 7.31997 26.0699 7.31997 24.3399C7.31997 22.6099 8.71997 21.2099 10.45 21.2099Z" stroke="white" stroke-width="1.5" stroke-linecap="round" stroke-linejoin="round"/>
</g>
</g>
</g>
<defs>
<clipPath id="clip0_842_5409">
<rect width="39" height="29" fill="white" transform="translate(0.5)"/>
</clipPath>
<clipPath id="clip1_842_5409">
<rect width="39" height="29" fill="white" transform="translate(0.5)"/>
</clipPath>
<clipPath id="clip2_842_5409">
<rect width="39" height="29" fill="white" transform="translate(0.5)"/>
</clipPath>
</defs>
</svg>
