<svg width="49" height="48" viewBox="0 0 49 48" fill="none" xmlns="http://www.w3.org/2000/svg">
<path id="Vector" d="M47.2571 23.7529C47.2571 11.1876 37.0695 1 24.496 1M47.2571 23.7529H47.2489C47.2489 36.3181 37.0613 46.5057 24.496 46.5057C11.9308 46.5057 1.74316 36.3181 1.74316 23.7529M47.2571 23.7529H1.74316M24.496 1C11.9308 1 1.74316 11.1876 1.74316 23.7529M24.496 1V46.514M24.496 1C24.496 1 19.0307 4.14544 15.6789 11.4766M24.496 1C24.496 1 29.9366 4.12893 33.2884 11.4105M24.496 46.514C24.496 46.514 20.3681 44.1363 17.0824 38.7123M24.496 46.514C24.496 46.514 28.6074 44.1528 31.8849 38.7453M13.1196 23.6951C13.1196 20.0625 13.7057 16.9171 14.5974 14.2257M15.6624 36.0044C14.49 33.4286 13.5737 30.3327 13.2517 26.6836M35.8807 23.662C35.8724 20.0625 35.3028 16.9419 34.4194 14.2587M33.3379 36.0044C34.5102 33.4286 35.4266 30.3327 35.7486 26.6754M7.54696 38.9352C11.2208 36.9951 16.7521 35.1293 24.496 35.1293C32.2399 35.1293 37.7713 36.9868 41.4451 38.9352M41.4533 8.57052C37.7795 10.5106 32.2399 12.3764 24.5043 12.3764C16.7686 12.3764 11.229 10.5189 7.55521 8.57052" stroke="#FF0000" stroke-width="2" stroke-linecap="round" stroke-linejoin="round"/>
</svg>
