<svg width="40" height="42" viewBox="0 0 40 42" fill="none" xmlns="http://www.w3.org/2000/svg">
<path d="M13.8259 34.349C14.0189 34.0771 14.2758 33.8569 14.574 33.7077C14.8723 33.5586 15.2026 33.4852 15.5359 33.494H27.5069C28.4569 33.494 33.6829 28.253 34.3479 27.508C35.9718 25.3582 37.4023 23.0689 38.6229 20.667C38.1841 20.2276 37.634 19.9159 37.0315 19.7653C36.429 19.6146 35.7969 19.6308 35.2029 19.812C33.6909 20.163 32.8029 21.249 31.7829 23.232L27.8629 25.267" stroke="white" stroke-width="1.5" stroke-linejoin="round"/>
<path d="M18.9569 28.3629H25.7979C29.2179 28.3629 29.2179 24.0879 25.7979 24.0879H21.2799C20.5679 24.0879 19.2319 22.3779 18.1019 22.3779H13.8269C12.5305 22.5582 11.329 23.1589 10.4069 24.0879L6.9859 27.5079" stroke="white" stroke-width="1.5" stroke-linejoin="round"/>
<path d="M5.27511 25.7981L0.999939 30.0732L11.2608 40.3341L15.5359 36.0589L5.27511 25.7981Z" stroke="white" stroke-width="1.5" stroke-linejoin="round"/>
<path d="M4.81195 29.667L6.81195 31.667" stroke="white" stroke-width="1.5" stroke-linejoin="round"/>
<path d="M34.2329 20.1863C34.3111 19.7749 34.3496 19.357 34.348 18.9383C34.348 14.4633 31.5419 10.4113 26.6479 6.9873" stroke="white" stroke-width="1.5" stroke-miterlimit="10"/>
<path d="M22.3809 6.98633C17.4909 10.4103 14.6809 14.4623 14.6809 18.9373C14.655 20.1682 15.0244 21.3749 15.7349 22.3803" stroke="white" stroke-width="1.5" stroke-miterlimit="10"/>
<path d="M26.652 6.98562C26.431 7.32462 25.091 7.50162 24.514 7.50162C23.7682 7.52152 23.0305 7.34348 22.376 6.98562C22.376 6.98562 19.9 2.39162 20 2.21262C20.9 0.60262 22.765 0.912618 24.517 1.35562C25.7991 1.75018 27.14 1.91936 28.48 1.85562C28.522 2.50762 26.652 6.98562 26.652 6.98562Z" stroke="white" stroke-width="1.5" stroke-miterlimit="10"/>
<path d="M21.5219 18.1022V18.9572C21.5219 19.4107 21.7021 19.8457 22.0228 20.1664C22.3435 20.4871 22.7784 20.6672 23.2319 20.6672H24.9419C25.3954 20.6672 25.8304 20.4871 26.1511 20.1664C26.4717 19.8457 26.6519 19.4107 26.6519 18.9572V18.4792C26.6518 18.1203 26.5388 17.7704 26.3288 17.4793C26.1188 17.1882 25.8225 16.9706 25.4819 16.8572L22.6899 15.9272C22.3496 15.8133 22.0538 15.5953 21.8441 15.3041C21.6345 15.0128 21.5218 14.6631 21.5219 14.3042V13.8262C21.5219 13.3727 21.7021 12.9377 22.0228 12.6171C22.3435 12.2964 22.7784 12.1162 23.2319 12.1162H24.9419C25.3954 12.1162 25.8304 12.2964 26.1511 12.6171C26.4717 12.9377 26.6519 13.3727 26.6519 13.8262V14.6812" stroke="white" stroke-width="1.5" stroke-miterlimit="10"/>
<path d="M23.812 11.667V10.667" stroke="white" stroke-width="1.5" stroke-miterlimit="10"/>
<path d="M23.812 20.667V22.667" stroke="white" stroke-width="1.5" stroke-miterlimit="10"/>
</svg>
