<svg width="36" height="37" viewBox="0 0 36 37" fill="none" xmlns="http://www.w3.org/2000/svg">
<path d="M24.75 8V5M11.25 8V5M4.875 12.5H31.125M4.5 15.566C4.5 12.3935 4.5 10.8065 5.154 9.5945C5.74537 8.51346 6.66299 7.64675 7.776 7.118C9.06 6.5 10.74 6.5 14.1 6.5H21.9C25.26 6.5 26.94 6.5 28.224 7.118C29.3535 7.661 30.27 8.528 30.846 9.593C31.5 10.808 31.5 12.395 31.5 15.5675V22.9355C31.5 26.108 31.5 27.695 30.846 28.907C30.2546 29.988 29.337 30.8547 28.224 31.3835C26.94 32 25.26 32 21.9 32H14.1C10.74 32 9.06 32 7.776 31.382C6.66322 30.8536 5.74562 29.9875 5.154 28.907C4.5 27.692 4.5 26.105 4.5 22.9325V15.566Z" stroke="white" stroke-width="1.5" stroke-linecap="round" stroke-linejoin="round"/>
</svg>
