<svg width="48" height="45" viewBox="0 0 48 45" fill="none" xmlns="http://www.w3.org/2000/svg">
<path d="M45.0068 21.9945V16.9525C45.0068 14.8805 41.7988 13.6635 39.0068 13.1875" stroke="#FF0000" stroke-width="2" stroke-miterlimit="10"/>
<path d="M38.0068 9.57039C38.6358 9.2478 39.1588 8.75115 39.5134 8.13963C39.868 7.52812 40.0393 6.82753 40.0068 6.12138V4.83939C40.0519 4.35253 39.995 3.86161 39.8396 3.39801C39.6842 2.93441 39.4339 2.50833 39.1045 2.14699C38.7751 1.78565 38.3739 1.497 37.9266 1.2995C37.4793 1.102 36.9958 1 36.5068 1C36.0179 1 35.5343 1.102 35.087 1.2995C34.6397 1.497 34.2386 1.78565 33.9092 2.14699C33.5798 2.50833 33.3294 2.93441 33.174 3.39801C33.0187 3.86161 32.9617 4.35253 33.0068 4.83939V5.99438" stroke="#FF0000" stroke-width="2" stroke-miterlimit="10"/>
<path d="M8.50687 12.9527C8.0193 12.9428 7.53888 12.8335 7.09502 12.6315C6.65116 12.4295 6.25322 12.139 5.92555 11.7778C5.59789 11.4167 5.34739 10.9924 5.18942 10.531C5.03146 10.0697 4.96934 9.5809 5.00687 9.09468V7.80867C4.95865 7.32006 5.01328 6.82678 5.16722 6.36055C5.32117 5.89432 5.57104 5.4655 5.90073 5.10167C6.23042 4.73784 6.63263 4.44707 7.08148 4.24808C7.53034 4.04909 8.01588 3.94629 8.50687 3.94629C8.99785 3.94629 9.4834 4.04909 9.93225 4.24808C10.3811 4.44707 10.7833 4.73784 11.113 5.10167C11.4427 5.4655 11.6926 5.89432 11.8465 6.36055C12.0005 6.82678 12.0551 7.32006 12.0069 7.80867V9.09468C12.0444 9.5809 11.9823 10.0697 11.8243 10.531C11.6663 10.9924 11.4158 11.4167 11.0882 11.7778C10.7605 12.139 10.3626 12.4295 9.91872 12.6315C9.47486 12.8335 8.99443 12.9428 8.50687 12.9527Z" stroke="#FF0000" stroke-width="2" stroke-miterlimit="10"/>
<path d="M14.7528 43.9731L11.7528 34.9941H5.7528C5.10779 34.9822 4.47169 34.8414 3.88187 34.58C3.29206 34.3187 2.76043 33.9421 2.31826 33.4724C1.87609 33.0026 1.53229 32.4492 1.30707 31.8447C1.08186 31.2402 0.979761 30.5967 1.0068 29.9521V18.9521C0.980534 18.5748 1.03195 18.196 1.15789 17.8393C1.28382 17.4826 1.4816 17.1555 1.73897 16.8783C1.99635 16.601 2.30785 16.3795 2.65423 16.2274C3.00061 16.0754 3.37451 15.996 3.7528 15.9941H6.7528L11.7528 20.9941H17.7528C17.7528 20.9941 18.1998 24.9941 14.7528 24.9941H8.7528L4.7528 20.9841" stroke="#FF0000" stroke-width="2" stroke-miterlimit="10"/>
<path d="M8.00671 23.9941V28.9941H12.0727C13.6727 28.9941 15.2237 29.4621 15.7527 30.9731L19.8797 43.9841" stroke="#FF0000" stroke-width="2" stroke-miterlimit="10"/>
<path d="M11.0067 24.9941H48.0067" stroke="#FF0000" stroke-width="2" stroke-miterlimit="10"/>
<path d="M34.7528 8.99414H16.7528L21.7528 20.9941H39.5528L34.7528 8.99414Z" stroke="#FF0000" stroke-width="2" stroke-linejoin="round"/>
</svg>
