<svg width="40" height="37" viewBox="0 0 40 37" fill="none" xmlns="http://www.w3.org/2000/svg">
<g clip-path="url(#clip0_1131_25962)">
<path d="M31.89 14.4639V21.6039C31.89 24.6939 26.78 27.1939 20.49 27.1939C14.2 27.1939 9.09 24.6939 9.09 21.6039V14.7839M5.78 19.9039C5.83 17.1839 5.4 14.3839 6.19 12.6739L2.83 11.1639C2.17 10.8639 2.1 9.79389 2.68 9.52389L19.34 1.66389C19.92 1.39389 20.76 1.47389 21.43 1.78389L37.8 9.40389C38.47 9.71389 38.51 10.7839 37.95 11.0439L21.28 18.9039C20.71 19.1739 19.86 19.0939 19.19 18.7839L6.18 12.6739L20.11 9.80389M5.44 24.6939C5.37 29.6139 7.95 32.1739 4.58 35.2839L1.5 33.0039C3.68 31.7539 5.38 28.8039 5.44 24.6939ZM5.65 20.5039C6.6 20.5039 7.37 21.2739 7.37 22.2239C7.37 23.1739 6.6 23.9439 5.65 23.9439C4.7 23.9439 3.93 23.1739 3.93 22.2239C3.93 21.2739 4.7 20.5039 5.65 20.5039Z" stroke="white" stroke-width="1.5" stroke-linecap="round" stroke-linejoin="round"/>
</g>
<defs>
<clipPath id="clip0_1131_25962">
<rect width="39" height="36" fill="white" transform="translate(0.5 0.5)"/>
</clipPath>
</defs>
</svg>
