<svg width="36" height="53" viewBox="0 0 36 53" fill="none" xmlns="http://www.w3.org/2000/svg">
<g id="Group 3507">
<path id="Vector" d="M17.6096 51.5517C17.0771 51.5483 16.6464 51.0484 16.5054 50.4278C13.1939 35.8242 1.05225 31.331 1.05225 17.8502C1.05225 8.50941 8.50306 1 17.6096 1C26.7162 1 34.167 8.50941 34.167 17.8502C34.167 31.331 22.0253 35.8242 18.7138 50.4278C18.5729 51.0473 18.1421 51.5483 17.6096 51.5517Z" stroke="#FF0000" stroke-width="2" stroke-linecap="round" stroke-linejoin="round"/>
<path id="Vector_2" d="M17.6096 8.22168L20.5138 14.1649L27.007 15.1172L22.3083 19.7436L23.417 26.2759L17.6096 23.192L11.8022 26.2759L12.9109 19.7436L8.21216 15.1172L14.7053 14.1649L17.6096 8.22168Z" stroke="#FF0000" stroke-width="2" stroke-linecap="round" stroke-linejoin="round"/>
</g>
</svg>
