<svg width="32" height="38" viewBox="0 0 32 38" fill="none" xmlns="http://www.w3.org/2000/svg">
<path d="M22.7798 19L24.8668 15.87M23.9458 15.87H25.6088M6.28784 15.87H7.95084M26.848 22.13H16.2049C16.0865 22.1303 15.9697 22.1574 15.8634 22.2093C15.757 22.2613 15.6639 22.3368 15.5909 22.43L10.8148 28.469C10.6649 28.6587 10.4732 28.8111 10.2545 28.9142C10.0358 29.0173 9.79624 29.0683 9.55452 29.0632C9.3128 29.0582 9.07536 28.9973 8.86116 28.8851C8.64696 28.773 8.46179 28.6127 8.3199 28.417L3.07576 21.187C2.92116 20.9639 2.83495 20.7006 2.82723 20.4293C2.81951 20.158 2.89064 19.8903 3.03231 19.6588C3.17397 19.4273 3.37998 19.242 3.62508 19.1254C3.87018 19.0087 4.14391 18.9658 4.41292 19.0019H10.8609M3.20488 25.7331L1.60478 28.9191C1.18053 29.753 0.97341 30.6804 1.00273 31.6155C1.03205 32.5507 1.29685 33.4633 1.77251 34.269C2.24817 35.0746 2.91929 35.7473 3.72392 36.2247C4.52856 36.7021 5.44071 36.9687 6.37578 37.0001H25.6697C26.5465 36.9736 27.4046 36.7394 28.1731 36.3166C28.9417 35.8938 29.5989 35.2945 30.0906 34.5681C30.5823 33.8416 30.8943 33.0088 31.0013 32.1381C31.1082 31.2675 31.0071 30.384 30.7059 29.5601L28.6387 24.2711L30.6138 21.4971C30.7812 21.2621 30.8804 20.9854 30.9004 20.6976C30.9204 20.4097 30.8604 20.122 30.7271 19.8661C30.5938 19.6103 30.3924 19.3961 30.1451 19.2475C29.8978 19.0989 29.6142 19.0216 29.3257 19.0241H15.1817C14.8193 19.0241 14.4618 19.1079 14.1373 19.2691C13.8127 19.4303 13.5299 19.6643 13.3108 19.9531L9.43388 25.0651M7.2168 15.87L9.2558 19M22.3547 3.5C22.3547 4.88071 21.2354 6 19.8547 6C18.474 6 17.3547 4.88071 17.3547 3.5C17.3547 2.11929 18.474 1 19.8547 1C21.2354 1 22.3547 2.11929 22.3547 3.5ZM13.3547 7C13.3547 8.65685 12.0116 10 10.3547 10C8.69788 10 7.35474 8.65685 7.35474 7C7.35474 5.34315 8.69788 4 10.3547 4C12.0116 4 13.3547 5.34315 13.3547 7ZM19.3547 13C19.3547 14.6569 18.0116 16 16.3547 16C14.6979 16 13.3547 14.6569 13.3547 13C13.3547 11.3431 14.6979 10 16.3547 10C18.0116 10 19.3547 11.3431 19.3547 13Z" stroke="white" stroke-width="1.5" stroke-linecap="round" stroke-linejoin="round"/>
</svg>
