<svg width="38" height="53" viewBox="0 0 38 53" fill="none" xmlns="http://www.w3.org/2000/svg">
<path d="M37.8642 49.62L32.1444 39.4782C32.0071 39.2358 31.7746 39.0537 31.5057 38.9784C31.2377 38.9032 30.9418 38.9385 30.699 39.0741L30.0081 39.4606L29.3367 38.2705C31.4394 36.8044 32.9268 34.6313 33.5365 32.1274C34.1677 29.5334 33.7942 26.8252 32.4842 24.5025C30.614 21.1866 27.0753 19.1259 23.25 19.1259C21.4489 19.1259 19.6608 19.5923 18.0819 20.474C15.6179 21.85 13.8392 24.0983 13.0745 26.8057C12.3098 29.5121 12.6506 32.3532 14.0334 34.805C15.9036 38.1209 19.4423 40.1816 23.2677 40.1816C24.7028 40.1816 26.1547 39.8787 27.4833 39.3027L28.1556 40.4947L27.4647 40.8812C26.9539 41.1664 26.7719 41.8121 27.0585 42.3194L32.7783 52.4611C32.9175 52.7073 33.1443 52.8848 33.417 52.961C33.5104 52.987 33.6075 53 33.7036 53C33.8857 53 34.065 52.9536 34.2237 52.8644L37.458 51.0582C37.9688 50.773 38.1508 50.1282 37.8642 49.62ZM27.3993 36.9883C27.3993 36.9883 27.3956 36.9902 27.3937 36.9921C26.1314 37.6963 24.7047 38.0679 23.2677 38.0679C20.2098 38.0679 17.3807 36.4216 15.8859 33.77C14.7804 31.8106 14.5087 29.5399 15.1193 27.3771C15.73 25.2142 17.152 23.4164 19.1212 22.3164C20.3844 21.6112 21.8121 21.2387 23.25 21.2387C26.3078 21.2387 29.1369 22.885 30.6318 25.5366C32.9128 29.5808 31.4628 34.7177 27.3993 36.9883ZM34.1107 50.5054L29.4301 42.206L30.1173 41.8223C30.1173 41.8223 30.1201 41.8204 30.122 41.8195C30.1229 41.8195 30.1238 41.8186 30.1248 41.8177L30.812 41.434L35.4926 49.7334L34.1098 50.5054H34.1107Z" fill="#FF0000"/>
<path d="M12.3304 36.7328H2.03543V2.02445H22.0287V8.1006C22.0287 8.36911 22.1361 8.62646 22.3265 8.81692C22.5179 9.00645 22.7766 9.11329 23.0464 9.11329H29.1528V18.8388C29.1528 19.3982 29.6084 19.8515 30.1705 19.8515C30.7326 19.8515 31.1883 19.3982 31.1883 18.8388V8.1006C31.1883 8.06716 31.1864 8.03371 31.1836 8.00119C31.1836 7.99376 31.1808 7.98633 31.1808 7.97889C31.178 7.95381 31.1742 7.9278 31.1696 7.90364C31.1686 7.89714 31.1658 7.8897 31.1649 7.8832C31.1593 7.85811 31.1537 7.8321 31.1453 7.80702C31.1434 7.80237 31.1416 7.79772 31.1406 7.79215C31.1322 7.76614 31.1229 7.73919 31.1126 7.71318C31.1108 7.70946 31.1089 7.70575 31.108 7.70296C31.0968 7.67602 31.0846 7.65 31.0706 7.62399C31.0678 7.61934 31.0659 7.61563 31.0631 7.61098C31.0501 7.58682 31.0351 7.56267 31.0202 7.53851C31.0127 7.52829 31.0052 7.51807 30.9968 7.50785C30.9847 7.49113 30.9735 7.47534 30.9604 7.45954C30.939 7.43353 30.9165 7.40844 30.8923 7.38429C30.8923 7.38429 30.8923 7.38429 30.8913 7.38429L23.7663 0.295447C23.7663 0.295447 23.7598 0.289873 23.756 0.286156C23.7355 0.266646 23.714 0.247135 23.6916 0.228554C23.6785 0.218334 23.6655 0.209043 23.6524 0.199752C23.6384 0.189533 23.6253 0.179313 23.6113 0.170022C23.5964 0.159802 23.5805 0.151441 23.5646 0.14215C23.5515 0.134717 23.5385 0.126356 23.5254 0.118923C23.5095 0.110561 23.4937 0.103129 23.4778 0.0956961C23.4638 0.0891926 23.4498 0.08176 23.4358 0.0761855C23.4199 0.069682 23.404 0.0650366 23.3881 0.0585331C23.3723 0.0529587 23.3573 0.0473842 23.3415 0.0427389C23.3256 0.0380935 23.3088 0.0343772 23.2929 0.0306609C23.277 0.0269446 23.2612 0.0222992 23.2444 0.0185829C23.2257 0.0148666 23.2061 0.0130085 23.1874 0.0102212C23.1734 0.0083631 23.1603 0.00557587 23.1463 0.0046468C23.1127 0.0009305 23.0791 1.42533e-06 23.0455 1.42533e-06H1.0177C0.455612 -0.000927649 -3.05176e-05 0.452461 -3.05176e-05 1.01176V37.7455C-3.05176e-05 38.3048 0.455612 38.7582 1.0177 38.7582H12.3294C12.8915 38.7582 13.3472 38.3048 13.3472 37.7455C13.3472 37.1862 12.8915 36.7328 12.3294 36.7328H12.3304ZM24.0641 3.45709L27.714 7.08884H24.0641V3.45709Z" fill="#FF0000"/>
<path d="M5.85145 7.04704H18.8093C19.3714 7.04704 19.827 6.59365 19.827 6.03434C19.827 5.47504 19.3714 5.02165 18.8093 5.02165H5.85145C5.28936 5.02165 4.83372 5.47504 4.83372 6.03434C4.83372 6.59365 5.28936 7.04704 5.85145 7.04704Z" fill="#FF0000"/>
<path d="M26.3554 12.706C26.3554 12.1467 25.8998 11.6933 25.3377 11.6933H5.85145C5.28936 11.6933 4.83372 12.1467 4.83372 12.706C4.83372 13.2653 5.28936 13.7187 5.85145 13.7187H25.3377C25.8998 13.7187 26.3554 13.2653 26.3554 12.706Z" fill="#FF0000"/>
<path d="M16.6123 19.3786C16.6123 18.8193 16.1567 18.3659 15.5946 18.3659H5.85145C5.28936 18.3659 4.83372 18.8193 4.83372 19.3786C4.83372 19.9379 5.28936 20.3913 5.85145 20.3913H15.5946C16.1567 20.3913 16.6123 19.9379 16.6123 19.3786Z" fill="#FF0000"/>
<path d="M10.0353 25.0376H5.85052C5.28843 25.0376 4.83279 25.491 4.83279 26.0503C4.83279 26.6096 5.28843 27.063 5.85052 27.063H10.0353C10.5974 27.063 11.0531 26.6096 11.0531 26.0503C11.0531 25.491 10.5974 25.0376 10.0353 25.0376Z" fill="#FF0000"/>
<path d="M10.0353 31.7103H5.85052C5.28843 31.7103 4.83279 32.1636 4.83279 32.7229C4.83279 33.2822 5.28843 33.7356 5.85052 33.7356H10.0353C10.5974 33.7356 11.0531 33.2822 11.0531 32.7229C11.0531 32.1636 10.5974 31.7103 10.0353 31.7103Z" fill="#FF0000"/>
<path d="M28.5786 25.2077C28.1108 24.8973 27.4787 25.0228 27.1668 25.4882L22.7981 32.0075L19.4395 29.0373C19.0194 28.6657 18.3761 28.7038 18.0026 29.1218C17.6291 29.5399 17.6665 30.1801 18.0875 30.5517L22.3209 34.2959C22.5086 34.4622 22.7495 34.5514 22.9969 34.5514C23.0399 34.5514 23.0838 34.5486 23.1267 34.543C23.419 34.5058 23.6804 34.3442 23.8438 34.0998L28.8605 26.6115C29.1724 26.146 29.0464 25.517 28.5786 25.2067V25.2077Z" fill="#FF0000"/>
</svg>
