<svg width="41" height="43" viewBox="0 0 41 43" fill="none" xmlns="http://www.w3.org/2000/svg">
<g clip-path="url(#clip0_899_6071)">
<path d="M36.398 7.62289C36.3727 7.57917 29.6369 0.31445 29.6369 0.31445C29.2858 -0.055262 28.7591 0.00340486 28.6485 0.00340486H11.3543C10.433 0.00340486 9.68507 0.764966 9.68507 1.70031V24.6136H11.2723V1.70087C11.2723 1.64608 11.3103 1.60014 11.3543 1.60014H28.6573L35.0782 8.51839V24.6141H36.666V8.21786C36.666 7.97988 36.562 7.76569 36.398 7.62289Z" fill="white"/>
<path d="M33.3342 10.424H27.7079C27.2699 10.424 26.9628 9.95965 26.9628 9.51909V2.91797H28.6012V8.77635H33.3342V10.424Z" fill="white"/>
<path d="M22.7487 29.6988C21.8731 29.6988 21.161 30.415 21.161 31.295C21.161 32.175 21.8731 32.8911 22.7487 32.8911C23.6243 32.8911 24.3354 32.1755 24.3354 31.295C24.3354 30.4144 23.6238 29.6988 22.7487 29.6988ZM22.7487 34.4868C20.9981 34.4868 19.5743 33.055 19.5743 31.2944C19.5743 29.5339 20.9986 28.1021 22.7487 28.1021C24.4988 28.1021 25.9232 29.5339 25.9232 31.2944C25.9232 33.055 24.4988 34.4868 22.7487 34.4868Z" fill="white"/>
<path d="M36.0667 35.5724L28.7156 35.1241C28.6705 34.8429 28.5868 34.6658 28.4283 34.2745C29.5951 34.1118 30.4641 33.6718 30.682 32.4287C30.8493 31.4734 30.4074 30.563 29.5533 30.1091C29.2363 29.8855 29.2456 29.9331 29.4663 29.611C29.8317 29.2048 30.0266 28.7017 30.0359 28.1864L36.0634 27.4559C37.9147 27.4857 39.415 29.2723 39.415 31.4657C39.415 34.0016 37.7282 35.5701 36.0672 35.5718L36.0667 35.5724ZM27.0409 38.4171L26.0998 40.7555L24.6562 38.0806C24.8709 37.8869 24.9881 37.3373 24.9881 37.3373C25.0189 37.2399 25.1119 37.2123 25.1609 37.2123C25.1934 37.2123 25.4064 37.3373 25.4064 37.3373C25.7597 37.5604 26.1598 37.6794 26.5643 37.6794C27.1521 37.6794 27.7112 37.4359 28.1224 37.0147L29.1642 38.9462L27.0415 38.4171H27.0409ZM23.4763 36.8486C23.4763 36.8486 23.3426 37.4364 22.8594 37.4325C22.3982 37.4292 22.2402 36.8486 22.2402 36.8486C22.0036 36.1109 21.3283 35.6166 20.5583 35.6166C20.2265 35.6166 19.4675 35.9863 19.4675 35.9863C19.1781 36.1673 18.8324 36.0721 18.6519 35.8031C18.5776 35.6897 18.4841 35.5369 18.6717 35.0886C18.8853 34.5806 18.8407 34.0105 18.5661 33.5323C18.2914 33.0547 17.8236 32.7364 17.2793 32.6606C17.0972 32.6346 16.6844 32.6246 16.5986 32.1503C16.5149 31.6904 16.8825 31.5343 17.0647 31.4358C17.549 31.1779 17.882 30.7185 17.9766 30.1745C18.073 29.631 17.9167 29.0836 17.549 28.6751C17.3845 28.4919 17.1555 28.2761 17.3234 27.9064C17.5325 27.4254 17.9843 27.5588 18.166 27.597C18.7598 27.7248 19.3932 27.5289 19.8099 27.0917C20.1467 26.7419 20.3211 26.282 20.303 25.7955C20.303 25.7955 20.1824 25.4064 20.4483 25.1856C20.7565 24.9299 21.1037 24.9105 21.4637 25.3688C21.8005 25.806 22.3085 26.055 22.8582 26.055C23.4081 26.055 23.9138 25.806 24.2506 25.3704C24.6535 24.8546 25.0586 24.9531 25.2688 25.1856C25.5225 25.4673 25.4141 25.7955 25.4141 25.7955C25.3959 26.282 25.5709 26.7419 25.9055 27.0917C26.4196 27.6291 27.0387 27.7033 27.7255 27.5605C28.0607 27.4891 28.3029 27.7016 28.3937 27.9064C28.4498 28.0342 28.512 28.2905 28.288 28.5401C27.867 29.0072 27.6166 29.4882 27.7382 30.175C27.8329 30.7185 28.1658 31.1779 28.6523 31.438C28.6523 31.438 29.1928 31.6312 29.1168 32.1503C29.0409 32.6672 28.5384 32.6462 28.0448 32.7159C27.5951 32.7779 27.2088 33.0397 26.982 33.4332C26.7564 33.829 26.7234 34.2977 26.8945 34.72L27.1108 35.2563C27.2088 35.5021 27.1378 35.6886 27.0635 35.802C26.883 36.0694 26.5841 36.1767 26.1895 35.9935C25.8885 35.8541 25.4906 35.6155 25.1593 35.6155C24.3871 35.6155 23.7118 36.1098 23.4752 36.8475L23.4763 36.8486ZM19.7394 40.6437L18.9161 38.6064L16.4841 39.2158L17.5507 36.966C17.964 37.4181 18.5413 37.6799 19.1522 37.6799C19.5567 37.6799 19.9574 37.5609 20.3118 37.3379C20.3118 37.3379 20.5231 37.2128 20.5578 37.2128C20.6051 37.2128 20.6976 37.2399 20.7289 37.3379C20.7289 37.3379 20.9106 37.8393 20.9981 37.986L19.7389 40.6443L19.7394 40.6437ZM36.0193 25.8608C35.5207 25.8647 29.4421 26.6517 29.4421 26.6517C28.9325 26.1026 28.1565 25.837 27.3937 26.0003C27.004 26.0274 27.0178 26.0445 27.0079 25.6743C27.0299 25.0699 26.8169 24.5043 26.4108 24.0797C25.998 23.648 25.4152 23.3984 24.8158 23.3984C24.0008 23.3984 23.4653 23.7931 22.9991 24.3908C22.91 24.5059 22.8076 24.5087 22.7152 24.3891C22.2485 23.7875 21.7053 23.399 20.9001 23.399C20.3013 23.399 19.7191 23.648 19.3052 24.0803C18.8996 24.5048 18.6866 25.071 18.7103 25.6748C18.6982 26.0451 18.713 26.0279 18.3223 26.0008C17.4373 25.8099 16.5364 26.1967 16.0504 26.9339C12.2002 26.4104 6.3637 25.6931 4.50517 25.8652C1.93723 26.1021 0 28.3098 0 31.003V32.5372C0 35.3731 2.05336 37.6794 4.57836 37.6794H6.75005C8.56895 37.6794 10.0488 36.0323 10.0488 34.005V33.1122C10.0488 31.0849 8.56895 29.4378 6.75005 29.4378H6.13641C4.7165 29.4378 3.56242 30.7135 3.56242 32.2804V33.5583C3.56242 33.9994 3.91739 34.3564 4.35602 34.3564C4.79465 34.3564 5.14963 33.9994 5.14963 33.5583V32.2804C5.14963 31.5941 5.59211 31.0334 6.13641 31.0334H6.75005C7.69335 31.0334 8.46109 31.9655 8.46109 33.1117V34.0044C8.46109 35.1506 7.6928 36.0821 6.75005 36.0821H4.57836C2.92896 36.0821 1.58556 34.4914 1.58556 32.5361V31.0019C1.58556 29.109 2.87613 27.6169 4.65156 27.452C6.23712 27.3059 11.4434 27.9152 15.7109 28.4941C15.7763 28.8987 15.9585 29.2867 16.2496 29.6105C16.4742 29.9309 16.4808 29.8844 16.1621 30.1103C15.3102 30.5624 14.8699 31.4723 15.0356 32.4276C15.2029 33.3818 15.9293 34.083 16.8831 34.2164C16.898 34.2186 17.068 34.2391 17.0812 34.2463L16.6701 35.1135L10.7863 35.5513C10.3493 35.584 10.0219 35.967 10.0527 36.4064C10.0852 36.8475 10.4622 37.1829 10.9046 37.1447L15.8837 36.7728L14.6129 39.4527C14.4472 39.7986 14.4709 40.1998 14.6745 40.5242C14.9255 40.9271 15.4137 41.1247 15.8776 41.0107L17.964 40.4887L18.6794 42.2593C18.8484 42.6821 19.2513 42.955 19.7047 42.955C20.134 42.955 20.5171 42.7114 20.7025 42.3212L22.2991 38.9562C22.4774 39.0038 22.6645 39.0282 22.8599 39.0282C23.0217 39.0282 23.1824 39.0116 23.3332 38.9767L25.1901 42.4164C25.3827 42.7751 25.7564 42.9987 26.162 42.9987C26.6155 42.9987 27.0178 42.7258 27.1868 42.3046L27.9952 40.2984L29.8433 40.7599C30.3078 40.8751 30.8136 40.6631 31.059 40.2491C31.2593 39.9087 31.2665 39.4986 31.0794 39.151L29.8048 36.7878L36.0199 37.1663C38.6153 37.1663 41.0005 34.8589 41.0005 31.4657C41.0005 28.3729 38.7667 25.8364 36.0199 25.8597L36.0193 25.8608Z" fill="white"/>
<path d="M17.9987 13.9961V16.7424H21.6233C22.0619 16.7424 22.4169 17.1249 22.4169 17.566C22.4169 18.0071 22.0619 18.3895 21.6233 18.3895H17.1269C16.6883 18.3895 16.3608 17.9412 16.3608 17.4995V8.98677C16.3608 8.54732 16.6883 8.13721 17.1269 8.13721H21.6233C22.0619 8.13721 22.4169 8.51965 22.4169 8.96076C22.4169 9.40186 22.0619 9.78486 21.6233 9.78486H17.9987V12.5311H21.6233C22.0619 12.5311 22.4169 12.8222 22.4169 13.2634C22.4169 13.7045 22.0619 13.9956 21.6233 13.9956H17.9987V13.9961Z" fill="white"/>
<path d="M28.8318 14.2682V17.7262C28.8318 18.1673 28.4768 18.5243 28.0382 18.5243C27.5995 18.5243 27.2445 18.1673 27.2445 17.7262V14.2682C27.2445 13.8287 26.8896 13.4717 26.4509 13.4717H25.2803V17.7649C25.2803 18.206 24.9909 18.563 24.5522 18.563C24.1136 18.563 23.8241 18.206 23.8241 17.7649V12.4451C23.8241 12.0056 24.1136 11.647 24.5522 11.647C24.7669 11.647 24.9474 11.735 25.0745 11.8756H26.4509C27.7652 11.8756 28.8318 12.9482 28.8318 14.2682Z" fill="white"/>
</g>
<defs>
<clipPath id="clip0_899_6071">
<rect width="41" height="43" fill="white"/>
</clipPath>
</defs>
</svg>
