<svg width="25" height="45" viewBox="0 0 25 45" fill="none" xmlns="http://www.w3.org/2000/svg">
<path d="M20.1666 30.7083C22.2378 30.7083 24 28.7389 24 26.8749V18.2499C24 15.0838 18.704 13.4583 15.375 13.4583C12.0459 13.4583 5.79163 15.0838 5.79163 18.2499V29.7499M20.1666 44.1251V20.1667M9.625 20.1667V29.7501M9.625 38.375V44.125M15.375 29.75V44.125M15.375 10.5833C17.6091 10.5833 19.2083 9.01766 19.2083 6.75V4.83333C19.2083 2.56568 17.6091 1 15.375 1C13.1408 1 11.5416 2.56568 11.5416 4.83333V6.75C11.5416 9.01766 13.1408 10.5833 15.375 10.5833ZM1 29.75H11.5417V38.375H1V29.75Z" stroke="white" stroke-width="1.5" stroke-linejoin="round"/>
</svg>
