<svg width="30" height="39" viewBox="0 0 30 39" fill="none" xmlns="http://www.w3.org/2000/svg">
<path d="M24.8535 18.92C23.0635 25.39 16.3635 29.17 9.90349 27.38C3.44349 25.59 -0.34651 18.89 1.44349 12.43C3.24349 5.97 9.93349 2.18 16.3935 3.98V3.97C22.8635 5.76 26.6435 12.46 24.8535 18.92ZM24.8535 18.92L1.45349 12.44M17.1635 1.21L9.14349 30.14M7.14349 5.24C8.48349 7.35 11.2235 9.25 14.6835 10.21C18.1235 11.16 21.4535 10.95 23.6835 9.84M2.62349 21.54C4.85349 20.42 8.19349 20.2 11.6435 21.16C15.0835 22.11 17.8235 24.01 19.1735 26.12M10.0535 27.29C14.2735 25.78 17.7735 22.18 19.1135 17.36C20.4435 12.56 19.3035 7.68 16.4835 4.21M9.67349 27.18C6.83349 23.71 5.68349 18.82 7.02349 14.01C8.35349 9.21 11.8435 5.61 16.0535 4.09M17.2135 1C23.6535 2.78 28.3735 8.68 28.3735 15.68C28.3735 24.09 21.5535 30.91 13.1435 30.91C11.7435 30.91 10.3935 30.72 9.10349 30.37M21.6935 35.06C22.3235 35.06 22.8335 35.72 22.8335 36.54C22.8335 37.35 22.3135 38.02 21.6935 38.02H4.62349C3.99349 38.02 3.48349 37.35 3.48349 36.54C3.48349 35.73 3.99349 35.06 4.62349 35.06H9.22349C11.0735 35.06 11.8435 32.44 13.1535 31.13C14.4635 32.44 15.2335 35.06 17.0835 35.06H21.6935Z" stroke="white" stroke-width="1.5" stroke-linecap="round" stroke-linejoin="round"/>
</svg>
