<svg width="45" height="35" viewBox="0 0 45 35" fill="none" xmlns="http://www.w3.org/2000/svg">
<path fill-rule="evenodd" clip-rule="evenodd" d="M17.2545 35C10.0093 35 6.36575 35 3.62262 32.7091C3.16194 32.3485 2.70126 31.8818 2.26152 31.3303C2.49624e-07 28.5303 0 24.8394 0 17.5C0 10.1606 2.49624e-07 6.4697 2.26152 3.6697C2.7222 3.11818 3.18288 2.65152 3.6645 2.2697C6.38669 2.52868e-07 10.0302 0 17.2755 0C24.5207 0 28.1643 -2.52868e-07 30.9074 2.29091C31.3681 2.65151 31.8288 3.11818 32.2685 3.6697C33.6987 5.44303 34.2243 7.57273 34.4169 10.7545L37.1475 7.06364C37.9851 5.96061 39.2834 5.30303 40.6445 5.30303C43.0526 5.30303 45 7.27576 45 9.71515V25.2848C45 27.7242 43.0526 29.697 40.6445 29.697H40.6235C39.2624 29.697 37.9642 29.0394 37.1475 27.9364L34.4169 24.2455C34.2243 27.4273 33.6987 29.5506 32.2685 31.3091C31.8288 31.8606 31.3471 32.3273 30.8865 32.7091C28.1433 35 24.4998 35 17.2545 35ZM17.2545 3.18182C10.7631 3.18182 7.49651 3.18182 5.61191 4.75151C5.27687 5.02727 4.96277 5.32424 4.66961 5.70606C3.12006 7.61515 3.12006 10.9242 3.12006 17.5C3.12006 24.0758 3.12006 27.3848 4.66961 29.2939C4.96277 29.6545 5.27687 29.9727 5.59097 30.2273C7.49651 31.8182 10.7631 31.8182 17.2545 31.8182C23.7459 31.8182 27.0126 31.8182 28.8972 30.2485H28.9181C29.2322 29.9939 29.5463 29.697 29.8395 29.3151C31.389 27.4061 31.389 24.097 31.389 17.5212C31.389 10.9455 31.389 7.63636 29.8395 5.72727C29.5463 5.36667 29.2322 5.04848 28.9181 4.79394C27.0126 3.20303 23.7459 3.20303 17.2545 3.20303V3.18182ZM34.53 19.0909L39.6603 26.0273C39.8906 26.3242 40.2466 26.5152 40.6445 26.5152C41.3146 26.5152 41.859 25.9636 41.859 25.2848V9.71515C41.859 9.38886 41.731 9.07592 41.5033 8.8452C41.2755 8.61447 40.9666 8.48485 40.6445 8.48485C40.2676 8.48485 39.8906 8.67576 39.6603 8.97273L34.53 15.9091V19.0909ZM12.543 17.5C12.543 20.1303 14.658 22.2727 17.2545 22.2727C19.8511 22.2727 21.966 20.1303 21.966 17.5C21.966 14.8697 19.8511 12.7273 17.2545 12.7273C14.658 12.7273 12.543 14.8697 12.543 17.5Z" fill="#FF0000"/>
</svg>
