<svg width="42" height="44" viewBox="0 0 42 44" fill="none" xmlns="http://www.w3.org/2000/svg">
<g clip-path="url(#clip0_771_28867)">
<g clip-path="url(#clip1_771_28867)">
<g clip-path="url(#clip2_771_28867)">
<mask id="mask0_771_28867" style="mask-type:luminance" maskUnits="userSpaceOnUse" x="0" y="0" width="42" height="44">
<path d="M41.5 0.5H0.5V43.5H41.5V0.5Z" fill="white"/>
</mask>
<g mask="url(#mask0_771_28867)">
<path d="M36.898 8.12289C36.8727 8.07917 30.1369 0.81445 30.1369 0.81445C29.7858 0.444738 29.2591 0.503405 29.1485 0.503405H11.8543C10.933 0.503405 10.1851 1.26497 10.1851 2.20031V25.1136H11.7723V2.20087C11.7723 2.14608 11.8103 2.10014 11.8543 2.10014H29.1573L35.5782 9.01839V25.1141H37.166V8.71786C37.166 8.47988 37.062 8.26569 36.898 8.12289Z" fill="white"/>
<path d="M33.8342 10.924H28.2079C27.7699 10.924 27.4628 10.4596 27.4628 10.0191V3.41797H29.1012V9.27635H33.8342V10.924Z" fill="white"/>
<path d="M23.2487 30.1987C22.3731 30.1987 21.661 30.915 21.661 31.795C21.661 32.675 22.3731 33.3911 23.2487 33.3911C24.1243 33.3911 24.8354 32.6755 24.8354 31.795C24.8354 30.9144 24.1238 30.1987 23.2487 30.1987ZM23.2487 34.9868C21.4981 34.9868 20.0743 33.5549 20.0743 31.7943C20.0743 30.0338 21.4986 28.6021 23.2487 28.6021C24.9988 28.6021 26.4232 30.0338 26.4232 31.7943C26.4232 33.5549 24.9988 34.9868 23.2487 34.9868Z" fill="white"/>
<path d="M36.5667 36.0724L29.2156 35.6241C29.1705 35.3429 29.0868 35.1658 28.9283 34.7745C30.0951 34.6118 30.9641 34.1718 31.182 32.9287C31.3493 31.9734 30.9074 31.063 30.0533 30.6091C29.7363 30.3855 29.7456 30.4331 29.9663 30.111C30.3317 29.7048 30.5266 29.2017 30.5359 28.6864L36.5634 27.9559C38.4147 27.9857 39.915 29.7723 39.915 31.9657C39.915 34.5016 38.2277 36.0707 36.5667 36.0724ZM27.5409 38.9171L26.5998 41.2555L25.1562 38.5806C25.3709 38.3869 25.4881 37.8373 25.4881 37.8373C25.5189 37.7399 25.6119 37.7123 25.6609 37.7123C25.6934 37.7123 25.9064 37.8373 25.9064 37.8373C26.2597 38.0604 26.6598 38.1794 27.0643 38.1794C27.6521 38.1794 28.2112 37.9359 28.6224 37.5147L29.6642 39.4462L27.5409 38.9171ZM23.9763 37.3486C23.9763 37.3486 23.8426 37.9364 23.3594 37.9325C22.8982 37.9292 22.7402 37.3486 22.7402 37.3486C22.5036 36.6109 21.8283 36.1166 21.0583 36.1166C20.7265 36.1166 19.9675 36.4863 19.9675 36.4863C19.6781 36.6673 19.3324 36.5721 19.1519 36.3031C19.0776 36.1897 18.9841 36.0369 19.1717 35.5886C19.3853 35.0806 19.3407 34.5105 19.0661 34.0323C18.7914 33.5547 18.3236 33.2364 17.7793 33.1606C17.5972 33.1346 17.1844 33.1246 17.0986 32.6503C17.0149 32.1904 17.3825 32.0343 17.5647 31.9358C18.049 31.6779 18.382 31.2185 18.4766 30.6745C18.573 30.131 18.4167 29.5836 18.049 29.1751C17.8845 28.9919 17.6555 28.7761 17.8234 28.4064C18.0325 27.9254 18.4843 28.0588 18.666 28.097C19.2598 28.2248 19.8932 28.0289 20.3099 27.5917C20.6467 27.2419 20.8211 26.782 20.803 26.2955C20.803 26.2955 20.6824 25.9064 20.9483 25.6856C21.2565 25.4299 21.6037 25.4105 21.9637 25.8688C22.3005 26.306 22.8085 26.555 23.3582 26.555C23.9081 26.555 24.4138 26.306 24.7506 25.8704C25.1535 25.3546 25.5586 25.4531 25.7688 25.6856C26.0225 25.9673 25.9141 26.2955 25.9141 26.2955C25.8959 26.782 26.0709 27.2419 26.4055 27.5917C26.9196 28.1291 27.5387 28.2033 28.2255 28.0605C28.5607 27.9891 28.8029 28.2016 28.8937 28.4064C28.9498 28.5342 29.012 28.7905 28.788 29.0401C28.367 29.5072 28.1166 29.9882 28.2382 30.675C28.3329 31.2185 28.6658 31.6779 29.1523 31.938C29.1523 31.938 29.6928 32.1312 29.6168 32.6503C29.5409 33.1672 29.0384 33.1462 28.5448 33.2159C28.0951 33.2779 27.7088 33.5397 27.482 33.9332C27.2564 34.329 27.2234 34.7977 27.3945 35.22L27.6108 35.7563C27.7088 36.0021 27.6378 36.1886 27.5635 36.302C27.383 36.5694 27.0841 36.6767 26.6895 36.4935C26.3885 36.3541 25.9906 36.1155 25.6593 36.1155C24.8871 36.1155 24.2118 36.6098 23.9752 37.3475L23.9763 37.3486ZM20.2394 41.1437L19.4161 39.1064L16.9841 39.7158L18.0507 37.466C18.464 37.9181 19.0413 38.1799 19.6522 38.1799C20.0567 38.1799 20.4574 38.0609 20.8118 37.8379C20.8118 37.8379 21.0231 37.7128 21.0578 37.7128C21.1051 37.7128 21.1976 37.7399 21.2289 37.8379C21.2289 37.8379 21.4106 38.3393 21.4981 38.486L20.2394 41.1437ZM36.5193 26.3608C36.0207 26.3647 29.9421 27.1517 29.9421 27.1517C29.4325 26.6026 28.6565 26.337 27.8937 26.5003C27.504 26.5274 27.5178 26.5445 27.5079 26.1743C27.5299 25.5699 27.3169 25.0043 26.9108 24.5797C26.498 24.148 25.9152 23.8984 25.3158 23.8984C24.5008 23.8984 23.9653 24.2931 23.4991 24.8908C23.41 25.0059 23.3076 25.0087 23.2152 24.8891C22.7485 24.2875 22.2053 23.899 21.4001 23.899C20.8013 23.899 20.2191 24.148 19.8052 24.5803C19.3996 25.0048 19.1866 25.571 19.2103 26.1748C19.1982 26.5451 19.213 26.5279 18.8223 26.5008C17.9373 26.3099 17.0364 26.6967 16.5504 27.4339C12.7002 26.9104 6.8637 26.1931 5.00517 26.3652C2.43723 26.6021 0.5 28.8098 0.5 31.503V33.0372C0.5 35.8731 2.55336 38.1794 5.07836 38.1794H7.25005C9.06895 38.1794 10.5488 36.5323 10.5488 34.505V33.6122C10.5488 31.5849 9.06895 29.9378 7.25005 29.9378H6.63641C5.2165 29.9378 4.06242 31.2135 4.06242 32.7804V34.0583C4.06242 34.4994 4.41739 34.8564 4.85602 34.8564C5.29465 34.8564 5.64963 34.4994 5.64963 34.0583V32.7804C5.64963 32.0941 6.09211 31.5334 6.63641 31.5334H7.25005C8.19335 31.5334 8.96109 32.4655 8.96109 33.6117V34.5044C8.96109 35.6506 8.1928 36.5821 7.25005 36.5821H5.07836C3.42896 36.5821 2.08556 34.9914 2.08556 33.0361V31.5019C2.08556 29.609 3.37613 28.1169 5.15156 27.952C6.73712 27.8059 11.9434 28.4152 16.2109 28.9941C16.2763 29.3987 16.4585 29.7867 16.7496 30.1105C16.9742 30.4309 16.9808 30.3844 16.6621 30.6103C15.8102 31.0624 15.3699 31.9723 15.5356 32.9276C15.7029 33.8818 16.4293 34.583 17.3831 34.7164C17.398 34.7186 17.568 34.7391 17.5812 34.7463L17.1701 35.6135L11.2863 36.0513C10.8493 36.084 10.5219 36.467 10.5527 36.9064C10.5852 37.3475 10.9622 37.6829 11.4046 37.6447L16.3837 37.2728L15.1129 39.9527C14.9472 40.2986 14.9709 40.6998 15.1745 41.0242C15.4255 41.4271 15.9137 41.6247 16.3776 41.5107L18.464 40.9887L19.1794 42.7593C19.3484 43.1821 19.7513 43.455 20.2047 43.455C20.634 43.455 21.0171 43.2114 21.2025 42.8212L22.7991 39.4562C22.9774 39.5038 23.1645 39.5282 23.3599 39.5282C23.5217 39.5282 23.6824 39.5116 23.8332 39.4767L25.6901 42.9164C25.8827 43.2751 26.2564 43.4987 26.662 43.4987C27.1155 43.4987 27.5178 43.2258 27.6868 42.8046L28.4952 40.7984L30.3433 41.2599C30.8078 41.3751 31.3136 41.1631 31.559 40.7491C31.7593 40.4087 31.7665 39.9986 31.5794 39.651L30.3048 37.2878L36.5199 37.6663C39.1153 37.6663 41.5005 35.3589 41.5005 31.9657C41.5005 28.8729 39.2667 26.3364 36.5199 26.3597L36.5193 26.3608Z" fill="white"/>
<path d="M18.4987 14.4961V17.2424H22.1233C22.5619 17.2424 22.9169 17.6249 22.9169 18.066C22.9169 18.5071 22.5619 18.8895 22.1233 18.8895H17.6269C17.1883 18.8895 16.8608 18.4412 16.8608 17.9995V9.48677C16.8608 9.04732 17.1883 8.63721 17.6269 8.63721H22.1233C22.5619 8.63721 22.9169 9.01965 22.9169 9.46076C22.9169 9.90186 22.5619 10.2849 22.1233 10.2849H18.4987V13.0311H22.1233C22.5619 13.0311 22.9169 13.3222 22.9169 13.7634C22.9169 14.2045 22.5619 14.4956 22.1233 14.4956L18.4987 14.4961Z" fill="white"/>
<path d="M29.3318 14.7682V18.2262C29.3318 18.6673 28.9768 19.0243 28.5382 19.0243C28.0995 19.0243 27.7445 18.6673 27.7445 18.2262V14.7682C27.7445 14.3287 27.3896 13.9717 26.9509 13.9717H25.7803V18.2649C25.7803 18.706 25.4909 19.063 25.0522 19.063C24.6136 19.063 24.3241 18.706 24.3241 18.2649V12.9451C24.3241 12.5056 24.6136 12.147 25.0522 12.147C25.2669 12.147 25.4474 12.235 25.5745 12.3756H26.9509C28.2652 12.3756 29.3318 13.4482 29.3318 14.7682Z" fill="white"/>
</g>
</g>
</g>
</g>
<defs>
<clipPath id="clip0_771_28867">
<rect width="41" height="43" fill="white" transform="translate(0.5 0.5)"/>
</clipPath>
<clipPath id="clip1_771_28867">
<rect width="41" height="43" fill="white" transform="translate(0.5 0.5)"/>
</clipPath>
<clipPath id="clip2_771_28867">
<rect width="41" height="43" fill="white" transform="translate(0.5 0.5)"/>
</clipPath>
</defs>
</svg>
