<svg width="50" height="48" viewBox="0 0 50 48" fill="none" xmlns="http://www.w3.org/2000/svg">
<path id="Vector" d="M42.22 9.72C42.22 10.99 41.75 12.18 40.89 13.08L31.22 22.44M21.55 13.08C20.69 12.19 20.22 11 20.22 9.72C20.22 7.12 22.23 5 24.7 5M34.22 35L42.09 31.72C44.41 30.75 47.09 31.75 48.22 34L28.46 45.68C27.03 46.53 25.32 46.77 23.71 46.37L11.6 43.34C10.7 43.11 9.74997 43.1 8.83997 43.3L1.21997 44.99M19.22 38H31.72C33.1 38 34.22 36.88 34.22 35.5C34.22 34.12 33.1 33 31.72 33H24.22L17.27 30.91C15.27 30.31 13.15 30.24 11.12 30.71L1.21997 33M31.22 28L43.72 15.91C45.27 14.33 46.22 12.14 46.22 9.72C46.22 4.9 42.42 1 37.74 1C35.12 1 32.77 2.23 31.22 4.15C29.66 2.23 27.32 1 24.7 1C20.02 1 16.22 4.9 16.22 9.72C16.22 12.14 17.18 14.33 18.72 15.91L31.22 28Z" stroke="#FF0000" stroke-width="2" stroke-miterlimit="10"/>
</svg>
