<svg width="45" height="49" viewBox="0 0 45 49" fill="none" xmlns="http://www.w3.org/2000/svg">
<path d="M6.43518 23.4108L12.8862 45.4208C13.0378 45.9256 13.3481 46.3681 13.7711 46.6826C14.194 46.9971 14.7071 47.1669 15.2342 47.1668C15.6166 47.1668 15.9936 47.0773 16.3352 46.9056C16.6769 46.7339 16.9736 46.4846 17.2018 46.1778C17.4299 45.8709 17.5831 45.515 17.6491 45.1384C17.7152 44.7618 17.6923 44.3749 17.5822 44.0088L11.0542 22.0928" stroke="#FF0000" stroke-width="2" stroke-linejoin="round"/>
<path d="M22.6613 22.0933C22.6613 22.0933 24.1692 28.1113 24.4792 29.2563C28.2922 31.1203 39.0222 30.0123 43.0522 27.2173C38.5582 24.4963 34.0052 21.9493 34.0052 21.9493C34.0052 21.9493 37.0873 16.4173 37.3813 12.6113C33.579 13.7293 29.611 14.1763 25.6552 13.9323" stroke="#FF0000" stroke-width="2" stroke-linejoin="round"/>
<path d="M23.6543 6.78686C18.8963 3.40386 4.3683 3.42286 1.8443 6.87886C3.0003 11.1439 5.1193 18.5579 6.4353 23.4109C13.9873 19.6959 27.2143 23.0689 28.2143 23.0689L23.6543 6.78686Z" stroke="#FF0000" stroke-width="2" stroke-linejoin="round"/>
<path d="M1.13132 4.36897C1.0246 4.04854 0.982309 3.71016 1.00693 3.37333C1.03156 3.0365 1.1226 2.70788 1.27479 2.40638C1.42698 2.10489 1.63734 1.83648 1.89371 1.61663C2.15009 1.39679 2.44744 1.22986 2.76862 1.12544C3.0898 1.02102 3.42847 0.981178 3.76511 1.00822C4.10176 1.03526 4.42971 1.12863 4.73011 1.28298C5.0305 1.43734 5.29739 1.64961 5.51539 1.90756C5.73339 2.16551 5.8982 2.46404 6.00031 2.78596" stroke="#FF0000" stroke-width="2" stroke-linejoin="round"/>
</svg>
