<svg width="47" height="47" viewBox="0 0 47 47" fill="none" xmlns="http://www.w3.org/2000/svg">
<g id="icons" clip-path="url(#clip0_71_719)">
<path id="Vector" d="M17 32C19.16 32 21 29.95 21 28V19C21 15.7 14.47 14 11 14C7.53 14 1 15.7 1 19V28C1 29.95 2.84 32 5 32" stroke="#FF0000" stroke-width="2" stroke-linejoin="round"/>
<path id="Vector_2" d="M29 34C30.95 34 33 32.95 33 31V22C33 18.7 27.13 17 24 17C23.69 17 23.35 17.02 23 17.05" stroke="#FF0000" stroke-width="2" stroke-linejoin="round"/>
<path id="Vector_3" d="M11 11C13.33 11 15 9.37 15 7V5C15 2.63 13.33 1 11 1C8.67 1 7 2.63 7 5V7C7 9.37 8.67 11 11 11Z" stroke="#FF0000" stroke-width="2" stroke-linejoin="round"/>
<path id="Vector_4" d="M29 47V24" stroke="#FF0000" stroke-width="2" stroke-linejoin="round"/>
<path id="Vector_5" d="M42 38C43.95 38 46 36.95 46 35V26C46 22.7 40.13 21 37 21C36.41 21 35.73 21.06 35 21.18" stroke="#FF0000" stroke-width="2" stroke-linejoin="round"/>
<path id="Vector_6" d="M42 47V28" stroke="#FF0000" stroke-width="2" stroke-linejoin="round"/>
<path id="Vector_7" d="M17 47V21" stroke="#FF0000" stroke-width="2" stroke-linejoin="round"/>
<path id="Vector_8" d="M5 21V47" stroke="#FF0000" stroke-width="2" stroke-linejoin="round"/>
<path id="Vector_9" d="M11 31V47" stroke="#FF0000" stroke-width="2" stroke-linejoin="round"/>
<path id="Vector_10" d="M24 14C26.33 14 28 12.37 28 10V8C28 5.63 26.33 4 24 4C21.67 4 20 5.63 20 8V10C20 12.37 21.67 14 24 14Z" stroke="#FF0000" stroke-width="2" stroke-linejoin="round"/>
<path id="Vector_11" d="M38 18C40.33 18 42 16.37 42 14V12C42 9.63 40.33 8 38 8C35.67 8 34 9.63 34 12V14C34 16.37 35.67 18 38 18Z" stroke="#FF0000" stroke-width="2" stroke-linejoin="round"/>
</g>
<defs>
<clipPath id="clip0_71_719">
<rect width="47" height="47" fill="white"/>
</clipPath>
</defs>
</svg>
