<svg width="40" height="40" viewBox="0 0 40 40" fill="none" xmlns="http://www.w3.org/2000/svg">
<g clip-path="url(#clip0_138_27797)">
<g clip-path="url(#clip1_138_27797)">
<path d="M34.4446 11.8887H25.5557V14.1109H34.4446V37.4442H25.5557V39.6665H36.6668V14.1109C36.6668 13.5215 36.4326 12.9563 36.0159 12.5395C35.5992 12.1228 35.0339 11.8887 34.4446 11.8887Z" fill="#EC0000"/>
<path d="M22.0888 6.3335H6.79989C6.17516 6.3335 5.57601 6.58167 5.13426 7.02342C4.69251 7.46517 4.44434 8.06432 4.44434 8.68905V39.6668H24.4443V8.68905C24.4443 8.06432 24.1962 7.46517 23.7544 7.02342C23.3127 6.58167 22.7135 6.3335 22.0888 6.3335ZM22.2221 37.4446H18.8888V34.1113H9.99989V37.4446H6.66656V8.68905C6.66656 8.67154 6.67001 8.6542 6.67671 8.63803C6.68341 8.62185 6.69323 8.60715 6.70561 8.59477C6.71799 8.58239 6.73269 8.57257 6.74887 8.56587C6.76504 8.55917 6.78238 8.55572 6.79989 8.55572H22.0888C22.1063 8.55572 22.1236 8.55917 22.1398 8.56587C22.156 8.57257 22.1707 8.58239 22.1831 8.59477C22.1954 8.60715 22.2053 8.62185 22.212 8.63803C22.2187 8.6542 22.2221 8.67154 22.2221 8.68905V37.4446Z" fill="#EC0000"/>
<path d="M8.88867 11.8887H11.1109V14.1109H8.88867V11.8887Z" fill="#EC0000"/>
<path d="M13.3335 11.8887H15.5557V14.1109H13.3335V11.8887Z" fill="#EC0000"/>
<path d="M17.7778 11.8887H20.0001V14.1109H17.7778V11.8887Z" fill="#EC0000"/>
<path d="M8.88867 17.4443H11.1109V19.6666H8.88867V17.4443Z" fill="#EC0000"/>
<path d="M13.3335 17.4443H15.5557V19.6666H13.3335V17.4443Z" fill="#EC0000"/>
<path d="M17.7778 17.4443H20.0001V19.6666H17.7778V17.4443Z" fill="#EC0000"/>
<path d="M8.88867 23H11.1109V25.2222H8.88867V23Z" fill="#EC0000"/>
<path d="M13.3335 23H15.5557V25.2222H13.3335V23Z" fill="#EC0000"/>
<path d="M17.7778 23H20.0001V25.2222H17.7778V23Z" fill="#EC0000"/>
<path d="M8.88867 28.5557H11.1109V30.7779H8.88867V28.5557Z" fill="#EC0000"/>
<path d="M13.3335 28.5557H15.5557V30.7779H13.3335V28.5557Z" fill="#EC0000"/>
<path d="M17.7778 28.5557H20.0001V30.7779H17.7778V28.5557Z" fill="#EC0000"/>
<path d="M25.5557 17.4443H27.7779V19.6666H25.5557V17.4443Z" fill="#EC0000"/>
<path d="M30 17.4443H32.2222V19.6666H30V17.4443Z" fill="#EC0000"/>
<path d="M25.5557 23H27.7779V25.2222H25.5557V23Z" fill="#EC0000"/>
<path d="M30 23H32.2222V25.2222H30V23Z" fill="#EC0000"/>
<path d="M25.5557 28.5557H27.7779V30.7779H25.5557V28.5557Z" fill="#EC0000"/>
<path d="M30 28.5557H32.2222V30.7779H30V28.5557Z" fill="#EC0000"/>
</g>
</g>
<defs>
<clipPath id="clip0_138_27797">
<rect width="40" height="40" fill="white"/>
</clipPath>
<clipPath id="clip1_138_27797">
<rect width="40" height="40" fill="white"/>
</clipPath>
</defs>
</svg>
