<svg width="39" height="36" viewBox="0 0 39 36" fill="none" xmlns="http://www.w3.org/2000/svg">
<path d="M31.39 13.9639V21.1039C31.39 24.1939 26.28 26.6939 19.99 26.6939C13.7 26.6939 8.59 24.1939 8.59 21.1039V14.2839M5.28 19.4039C5.33 16.6839 4.9 13.8839 5.69 12.1739L2.33 10.6639C1.67 10.3639 1.6 9.29389 2.18 9.02389L18.84 1.16389C19.42 0.893891 20.26 0.973891 20.93 1.28389L37.3 8.90389C37.97 9.21389 38.01 10.2839 37.45 10.5439L20.78 18.4039C20.21 18.6739 19.36 18.5939 18.69 18.2839L5.68 12.1739L19.61 9.30389M4.94 24.1939C4.87 29.1139 7.45 31.6739 4.08 34.7839L1 32.5039C3.18 31.2539 4.88 28.3039 4.94 24.1939ZM5.15 20.0039C6.1 20.0039 6.87 20.7739 6.87 21.7239C6.87 22.6739 6.1 23.4439 5.15 23.4439C4.2 23.4439 3.43 22.6739 3.43 21.7239C3.43 20.7739 4.2 20.0039 5.15 20.0039Z" stroke="white" stroke-width="1.5" stroke-linecap="round" stroke-linejoin="round"/>
</svg>
