<svg width="36" height="44" viewBox="0 0 36 44" fill="none" xmlns="http://www.w3.org/2000/svg">
<path d="M34.3749 44H1.37491C1.01024 44 0.660481 43.8552 0.402618 43.5973C0.144756 43.3394 -9.15527e-05 42.9897 -9.15527e-05 42.625V1.375C-9.15527e-05 1.01033 0.144756 0.660575 0.402618 0.402712C0.660481 0.14485 1.01024 2.20659e-06 1.37491 2.20659e-06H24.7519C25.116 -0.000649839 25.4657 0.143231 25.7239 0.400027L35.3468 10.019C35.6036 10.2772 35.7475 10.6268 35.7469 10.991V42.622C35.7472 42.8026 35.7121 42.9815 35.6433 43.1484C35.5746 43.3154 35.4736 43.4672 35.3462 43.5952C35.2188 43.7231 35.0675 43.8247 34.9008 43.8942C34.7341 43.9636 34.5555 43.9996 34.3749 44ZM2.74991 41.25H33.0009V11.564L24.1839 2.75H2.75089L2.74991 41.25Z" fill="#FF0000"/>
<path d="M34.3759 12.3749H24.7518C24.3872 12.3749 24.0374 12.23 23.7795 11.9721C23.5217 11.7142 23.3768 11.3646 23.3768 10.9999V1.38086C23.3768 1.01619 23.5217 0.666432 23.7795 0.408569C24.0374 0.150707 24.3872 0.00585938 24.7518 0.00585938C25.1165 0.00585938 25.4663 0.150707 25.7241 0.408569C25.982 0.666432 26.1268 1.01619 26.1268 1.38086V9.62488H34.3759C34.7405 9.62488 35.0903 9.76973 35.3481 10.0276C35.606 10.2854 35.7509 10.6352 35.7509 10.9999C35.7509 11.3646 35.606 11.7142 35.3481 11.9721C35.0903 12.23 34.7405 12.3749 34.3759 12.3749Z" fill="#FF0000"/>
<path d="M15.1239 31.6251C14.8521 31.625 14.5863 31.5443 14.3603 31.3932C14.1342 31.2421 13.9581 31.0274 13.854 30.7762C13.75 30.525 13.7228 30.2487 13.7758 29.982C13.8288 29.7154 13.9597 29.4703 14.1519 29.2781L23.7769 19.6531C23.9034 19.5204 24.0552 19.4144 24.2233 19.3413C24.3914 19.2681 24.5723 19.2293 24.7556 19.2271C24.9389 19.225 25.1208 19.2596 25.2906 19.3287C25.4603 19.3979 25.6145 19.5002 25.7442 19.6299C25.8738 19.7595 25.9762 19.9137 26.0453 20.0835C26.1145 20.2532 26.1489 20.4351 26.1468 20.6184C26.1446 20.8017 26.1059 20.9827 26.0327 21.1507C25.9596 21.3188 25.8535 21.4706 25.7208 21.5971L16.0958 31.2221C15.9684 31.35 15.8169 31.4514 15.65 31.5206C15.4832 31.5898 15.3045 31.6252 15.1239 31.6251Z" fill="#FF0000"/>
<path d="M15.1249 31.6253C14.9445 31.6259 14.7658 31.591 14.599 31.5223C14.4322 31.4537 14.2805 31.3527 14.1528 31.2253L10.0278 27.1003C9.78 26.8405 9.64368 26.4941 9.64792 26.1351C9.65217 25.7761 9.79663 25.4329 10.0505 25.1791C10.3044 24.9252 10.6475 24.7807 11.0066 24.7765C11.3656 24.7722 11.7121 24.9085 11.9719 25.1563L16.0969 29.2813C16.2891 29.4736 16.4199 29.7186 16.4729 29.9852C16.5259 30.2519 16.4987 30.5283 16.3946 30.7795C16.2906 31.0307 16.1145 31.2454 15.8885 31.3965C15.6625 31.5476 15.3967 31.6283 15.1249 31.6284V31.6253Z" fill="#FF0000"/>
</svg>
