<svg width="39" height="35" viewBox="0 0 39 35" fill="none" xmlns="http://www.w3.org/2000/svg">
<path d="M2.43844 26.8083C2.01694 25.653 1.18761 23.1186 1.07934 22.3275C0.428697 17.585 3.93839 14.8151 7.97154 15.873C8.66528 16.0551 9.12777 16.1336 9.59341 16.1346C10.0591 16.1346 10.5216 16.0551 11.2153 15.873C13.3627 15.309 15.4439 15.8427 16.5718 17.0042C17.6997 18.1658 18.2925 19.3388 18.6394 21.4014M3.96151 20.7296C4.16753 19.6664 4.84761 18.9067 5.62754 18.4567M12.505 9.74404C12.505 9.74404 9.59341 11.1871 9.59341 15.0359V16.1336M25.2593 27.6204C25.7365 29.9497 24.8441 32.2582 22.3519 32.7489C16.6738 33.8676 1.6049 35.1265 1.01732 32.1828C0.429748 29.2392 14.8932 24.9394 20.5902 23.917C23.0908 23.4681 24.8052 25.2857 25.2583 27.6193M17.7133 32.0154L17.9835 33.4051M13.4458 29.2151L13.6686 30.3662M7.13274 32.0018L7.5185 33.9869M24.8 26.2118C26.4555 25.1591 29.92 22.9365 30.8176 22.7659C31.627 23.2431 32.5436 24.7301 32.8347 26.1972V26.2003C33.1301 27.6674 32.8505 29.3794 32.2839 30.1151C31.3852 30.2825 27.3227 29.4893 25.3823 29.1136M18.2252 24.413L18.6383 26.5404M24.5456 21.9288V11.0458M24.5456 11.0458H37.9999M24.5456 11.0458L20.3411 5.18575M37.9999 11.0458V33.6489H27.9092M37.9999 11.0458L33.7955 5.18575M20.3411 5.18575H33.7955M20.3411 5.18575L16.1366 11.0458V13.5573M20.3411 5.18575V1H33.7955V5.18575M10.1337 12.3842C10.1337 12.3842 7.55739 13.7613 5.54029 13.055C3.52319 12.3486 2.58244 9.82566 2.58244 9.82566C2.58244 9.82566 4.91278 8.44855 6.92988 9.1549C8.94698 9.86124 10.1337 12.3842 10.1337 12.3842Z" stroke="white" stroke-width="1.5" stroke-linecap="round" stroke-linejoin="round"/>
</svg>
