<svg width="37" height="36" viewBox="0 0 37 36" fill="none" xmlns="http://www.w3.org/2000/svg">
<path d="M33.9551 7.90399H32.4402V3.117C32.4394 2.29057 32.1107 1.4982 31.5264 0.913818C30.942 0.32944 30.1496 0.000794269 29.3231 0H7.1792C6.35276 0.000794269 5.56033 0.32944 4.97595 0.913818C4.39157 1.4982 4.06293 2.29057 4.06213 3.117V7.90399H2.54712C1.87195 7.90452 1.22458 8.17288 0.74707 8.65021C0.269559 9.12753 0.000916493 9.77478 0.00012207 10.45V15.169H1.68909V10.45C1.68962 10.2227 1.78022 10.0049 1.94104 9.84424C2.10186 9.68361 2.31982 9.59322 2.54712 9.59296H4.06213V30.267C4.06246 30.7329 4.20995 31.1869 4.48364 31.564C4.75733 31.9412 5.14327 32.2222 5.58618 32.367V33.667C5.58671 34.2524 5.81943 34.8137 6.2334 35.2277C6.64736 35.6416 7.20875 35.8745 7.79419 35.875H11.4302C12.0156 35.8745 12.5769 35.6416 12.9908 35.2277C13.4048 34.8137 13.6377 34.2524 13.6382 33.667V32.473H22.8641V33.667C22.8647 34.2524 23.0975 34.8137 23.5115 35.2277C23.9254 35.6416 24.4867 35.8745 25.0721 35.875H28.7081C29.2936 35.8745 29.8548 35.6416 30.2688 35.2277C30.6828 34.8137 30.9156 34.2524 30.9161 33.667V32.367C31.3592 32.2224 31.7453 31.9414 32.0192 31.5643C32.293 31.1871 32.4408 30.7331 32.4412 30.267V9.59497H33.9562C34.1836 9.59497 34.4016 9.68526 34.5625 9.84595C34.7234 10.0066 34.8138 10.2246 34.8141 10.452V15.171H36.5022V10.452C36.5019 9.77645 36.2334 9.1287 35.7559 8.65094C35.2783 8.17318 34.6306 7.90452 33.9551 7.90399ZM5.75513 7.06299H17.4111V19.772H5.75513V7.06299ZM11.9551 33.669C11.9548 33.8066 11.9001 33.9384 11.8029 34.0357C11.7056 34.133 11.5737 34.1877 11.4362 34.188H7.80017C7.6626 34.1877 7.53075 34.133 7.43347 34.0357C7.3362 33.9384 7.28139 33.8066 7.28113 33.669V32.475H11.9551V33.669ZM29.2322 33.669C29.2319 33.8066 29.1771 33.9384 29.0798 34.0357C28.9826 34.133 28.8507 34.1877 28.7131 34.188H25.0771C24.9396 34.1877 24.8077 34.133 24.7104 34.0357C24.6132 33.9384 24.5584 33.8066 24.5581 33.669V32.475H29.2322V33.669ZM30.7571 30.269C30.7568 30.4065 30.7021 30.5384 30.6049 30.6357C30.5076 30.733 30.3757 30.7877 30.2382 30.788H6.27612C6.13856 30.7877 6.0067 30.733 5.90942 30.6357C5.81215 30.5384 5.75734 30.4065 5.75708 30.269V21.463H30.7571V30.269ZM30.7571 19.774H19.1012V7.06598H30.7571V19.774ZM30.7571 5.37396H5.75708V3.117C5.75761 2.73844 5.90834 2.37548 6.17603 2.10779C6.44371 1.8401 6.80661 1.68949 7.18518 1.68896H29.3291C29.7077 1.68949 30.0706 1.8401 30.3383 2.10779C30.6059 2.37548 30.7566 2.73844 30.7571 3.117V5.37396Z" fill="white"/>
<path d="M10.4951 28.786C11.0798 28.786 11.6513 28.6127 12.1375 28.2879C12.6236 27.9631 13.0025 27.5014 13.2262 26.9612C13.4499 26.4211 13.5085 25.8267 13.3944 25.2533C13.2804 24.6799 12.9987 24.1532 12.5853 23.7398C12.1719 23.3264 11.6453 23.0449 11.0719 22.9308C10.4985 22.8168 9.90415 22.8753 9.36401 23.099C8.82388 23.3228 8.36216 23.7017 8.03735 24.1878C7.71254 24.6739 7.53918 25.2454 7.53918 25.8301C7.53998 26.6138 7.8517 27.3652 8.40588 27.9193C8.96007 28.4735 9.71138 28.7853 10.4951 28.786ZM10.4951 24.564C10.7457 24.564 10.9907 24.6383 11.1991 24.7776C11.4075 24.9168 11.5699 25.1147 11.6658 25.3462C11.7617 25.5777 11.7867 25.8324 11.7378 26.0782C11.6889 26.324 11.5683 26.5497 11.3911 26.7269C11.2139 26.9041 10.9881 27.0248 10.7423 27.0737C10.4965 27.1226 10.2418 27.0975 10.0103 27.0016C9.77874 26.9057 9.58087 26.7433 9.44165 26.5349C9.30243 26.3266 9.22815 26.0816 9.22815 25.831C9.22841 25.4951 9.36206 25.173 9.59961 24.9354C9.83716 24.6978 10.1592 24.5643 10.4951 24.564Z" fill="white"/>
<path d="M26.0078 28.786C26.5925 28.786 27.164 28.6127 27.6501 28.2879C28.1363 27.9631 28.5152 27.5014 28.7389 26.9612C28.9626 26.4211 29.0212 25.8267 28.9071 25.2533C28.793 24.6799 28.5114 24.1532 28.098 23.7398C27.6846 23.3264 27.158 23.0449 26.5846 22.9308C26.0112 22.8168 25.4168 22.8753 24.8767 23.099C24.3366 23.3228 23.8749 23.7017 23.55 24.1878C23.2252 24.6739 23.0519 25.2454 23.0519 25.8301C23.0527 26.6138 23.3644 27.3652 23.9186 27.9193C24.4728 28.4735 25.2241 28.7853 26.0078 28.786ZM26.0078 24.564C26.2584 24.564 26.5034 24.6383 26.7118 24.7776C26.9201 24.9168 27.0826 25.1147 27.1785 25.3462C27.2744 25.5777 27.2994 25.8324 27.2505 26.0782C27.2016 26.324 27.081 26.5497 26.9038 26.7269C26.7266 26.9041 26.5008 27.0248 26.255 27.0737C26.0092 27.1226 25.7546 27.0975 25.5231 27.0016C25.2916 26.9057 25.0936 26.7433 24.9543 26.5349C24.8151 26.3266 24.7408 26.0816 24.7408 25.831C24.7411 25.4951 24.8748 25.173 25.1123 24.9354C25.3499 24.6978 25.6719 24.5643 26.0078 24.564Z" fill="white"/>
</svg>
