<svg width="45" height="52" viewBox="0 0 45 52" fill="none" xmlns="http://www.w3.org/2000/svg">
<g id="Group 3420">
<g id="Group">
<path id="Vector" d="M15.3161 51.7033L13.3789 43.6123" stroke="#FF0000" stroke-width="2" stroke-miterlimit="10"/>
<path id="Vector_2" d="M37.8075 51.7036C35.7831 44.6107 35.5992 42.4089 36.9356 36.9199C37.3541 35.2021 38.1023 33.5791 39.1201 32.1334C41.7516 28.3924 43.2401 22.7832 43.2401 18.4823C43.2401 8.82367 36.6693 1 24.0777 1C13.604 0.998418 5.31153 8.09288 4.92949 17.6423C4.92156 17.8385 5.05631 18.4174 5.23227 19.0818C5.69358 20.8154 5.33056 22.6614 4.25101 24.0977C2.87818 25.9247 2.1347 27.274 1.18355 28.5426C0.845897 28.9934 0.988569 29.6372 1.49268 29.8888L4.24625 31.2634C4.61403 31.4468 4.76304 31.8929 4.57915 32.2599L3.97359 34.3368C3.88323 34.6469 4.02749 34.979 4.31759 35.123L5.84259 35.8839C5.93295 35.9297 5.96941 36.0389 5.92502 36.129L5.1435 37.6903C5.00558 37.9655 5.05948 38.2977 5.27824 38.516L5.86796 39.1044C5.9599 39.1962 6.0249 39.3117 6.0566 39.4366L6.79849 42.3962C6.97763 43.1128 7.62282 43.6158 8.36313 43.6158H13.5786C14.3411 43.6158 15.0703 43.3137 15.6093 42.7758L18.0537 40.1437" stroke="#FF0000" stroke-width="2" stroke-miterlimit="10"/>
</g>
<g id="Group_2">
<path id="Vector_3" d="M22.4654 10.1909L22.5447 6.54004H26.6489L26.7282 10.1909L29.255 11.2396L31.8834 8.71346L34.786 11.6256L32.2686 14.2625L33.3149 16.7966L36.9546 16.8756V20.9931L33.3149 21.0722L32.2686 23.6063L34.786 26.2432L31.8834 29.1553L29.255 26.6291L26.7282 27.6779L26.6489 31.3303H22.5447L22.4654 27.6779L19.9401 26.6291L17.3102 29.1553L14.4076 26.2432L16.9266 23.6063L15.8787 21.0722L12.239 20.9931V16.8756L15.8787 16.7966L16.9266 14.2625L14.4076 11.6256L17.3102 8.71346L19.9401 11.2396L22.4654 10.1909Z" stroke="#FF0000" stroke-width="2" stroke-miterlimit="10"/>
<path id="Vector_4" d="M24.5977 18.2109V24.5366" stroke="#FF0000" stroke-width="2" stroke-miterlimit="10"/>
<path id="Vector_5" d="M21.9392 22.6079C20.793 21.7949 20.0559 20.4377 20.0559 18.927C20.0559 16.4278 22.085 14.3936 24.5992 14.3936C27.1134 14.3936 29.1425 16.4278 29.1425 18.927C29.1425 20.4488 28.3943 21.7854 27.2498 22.6079" stroke="#FF0000" stroke-width="2" stroke-miterlimit="10"/>
</g>
</g>
</svg>
