<svg width="48" height="46" viewBox="0 0 48 46" fill="none" xmlns="http://www.w3.org/2000/svg">
<path d="M10.1015 15.9473C11.4492 15.3827 12.0853 13.8295 11.5224 12.478C10.9595 11.1265 9.41071 10.4885 8.06306 11.0531C6.71541 11.6176 6.07925 13.1708 6.64216 14.5223C7.20506 15.8738 8.75387 16.5118 10.1015 15.9473Z" stroke="white" stroke-width="2" stroke-linecap="round" stroke-linejoin="round"/>
<path d="M5.78692 23.9395L3.74756 34.035H6.40993L7.15621 44.4115" stroke="white" stroke-width="2" stroke-linecap="round" stroke-linejoin="round"/>
<path d="M12.3801 23.9395L14.4195 34.035H11.7571L11.0131 44.4115" stroke="white" stroke-width="2" stroke-linecap="round" stroke-linejoin="round"/>
<path d="M16.804 29.7133L14.9394 20.6112C14.7444 19.5594 13.9018 18.7705 12.8933 18.7705H5.27375C4.26527 18.7705 3.42263 19.5616 3.22766 20.6112L1.10986 31.154" stroke="white" stroke-width="2" stroke-linecap="round" stroke-linejoin="round"/>
<path d="M42.1253 15.3752C43.1581 14.3396 43.1581 12.6604 42.1253 11.6248C41.0926 10.5891 39.4183 10.5891 38.3855 11.6248C37.3528 12.6604 37.3528 14.3396 38.3855 15.3752C39.4183 16.4109 41.0926 16.4109 42.1253 15.3752Z" stroke="white" stroke-width="2" stroke-linecap="round" stroke-linejoin="round"/>
<path d="M43.4142 23.9395V32.246L42.4326 44.4115" stroke="white" stroke-width="2" stroke-linecap="round" stroke-linejoin="round"/>
<path d="M37.1124 23.9395L37.0945 32.2483L38.0761 44.4115" stroke="white" stroke-width="2" stroke-linecap="round" stroke-linejoin="round"/>
<path d="M32.1932 29.7133L34.0735 20.6112C34.2685 19.5594 35.1111 18.7705 36.1196 18.7705H44.537C45.7247 18.7705 46.6861 19.8336 46.6861 21.1438V31.154" stroke="white" stroke-width="2" stroke-linecap="round" stroke-linejoin="round"/>
<path d="M26.6041 24.8272C26.6041 26.0791 25.5912 27.0949 24.3429 27.0949C23.0946 27.0949 22.0817 26.0791 22.0817 24.8272C22.0817 23.5754 23.0946 22.5596 24.3429 22.5596C25.5912 22.5596 26.6041 23.5754 26.6041 24.8272Z" stroke="white" stroke-width="2" stroke-linecap="round" stroke-linejoin="round"/>
<path d="M27.1061 32.9863V37.1711L26.12 44.4393" stroke="white" stroke-width="2" stroke-linecap="round" stroke-linejoin="round"/>
<path d="M21.5662 32.9863L21.5505 37.1733L22.5366 44.4393" stroke="white" stroke-width="2" stroke-linecap="round" stroke-linejoin="round"/>
<path d="M16.804 29.7139H32.1933" stroke="white" stroke-width="2" stroke-linecap="round" stroke-linejoin="round"/>
<path d="M31.4447 11.4641V3.54187C28.426 3.54187 25.7995 2.78672 24.4437 1C23.0878 2.78672 20.4613 3.54187 17.4426 3.54187V11.4664C17.4426 12.898 18.162 14.2352 19.3565 15.0218L24.4437 18.3728L29.5309 15.0218C30.7254 14.2352 31.4447 12.898 31.4447 11.4664V11.4641Z" stroke="white" stroke-width="2" stroke-linecap="round" stroke-linejoin="round"/>
<path d="M28.3722 6.95996L23.9349 12.9045L20.8737 9.40968" stroke="white" stroke-width="2" stroke-linecap="round" stroke-linejoin="round"/>
<path d="M1 44.4121H7.15618" stroke="white" stroke-width="2" stroke-linecap="round" stroke-linejoin="round"/>
<path d="M11.0131 44.4121L22.5366 44.4391" stroke="white" stroke-width="2" stroke-linecap="round" stroke-linejoin="round"/>
<path d="M26.12 44.4121H38.076" stroke="white" stroke-width="2" stroke-linecap="round" stroke-linejoin="round"/>
<path d="M42.4326 44.4121H46.6884" stroke="white" stroke-width="2" stroke-linecap="round" stroke-linejoin="round"/>
</svg>
