<svg width="26" height="31" viewBox="0 0 26 31" fill="none" xmlns="http://www.w3.org/2000/svg">
<path d="M23.8575 2.36037C23.2037 1.60283 22.391 0.998687 21.4772 0.590957C20.5634 0.183226 19.5709 -0.0180789 18.5705 0.00135691C17.2731 -0.00291015 15.9864 0.23657 14.7775 0.707351C14.1674 0.982184 13.506 1.12428 12.837 1.12428C12.1679 1.12428 11.5065 0.982184 10.8965 0.707351C9.68656 0.236223 8.39885 -0.00326242 7.10045 0.00135691C6.09982 -0.0186212 5.10709 0.182223 4.19292 0.589614C3.27876 0.997004 2.46564 1.60092 1.81145 2.35835C0.608252 3.83064 -0.033173 5.68225 0.00145419 7.58333C0.0508268 9.71861 0.604596 11.8119 1.61748 13.6923C2.45727 15.3455 3.03708 17.1184 3.33648 18.9484C3.58648 20.5954 3.76143 22.0164 3.91643 23.2694C4.05092 24.8254 4.3108 26.3681 4.69347 27.8823C5.35047 29.9823 6.67144 30.4174 7.66344 30.4174C8.35103 30.403 9.01523 30.165 9.55559 29.7396C10.096 29.3141 10.4831 28.7243 10.6584 28.0593C11.0196 26.9765 11.2699 25.8598 11.4054 24.7263C11.5302 23.6307 11.7753 22.5522 12.1365 21.5103C12.4425 20.7983 12.6685 20.7984 12.8365 20.7984C13.0045 20.7984 13.2275 20.7983 13.5365 21.5103C13.8976 22.5522 14.1427 23.6307 14.2674 24.7263C14.403 25.8598 14.6532 26.9765 15.0145 28.0593C15.1898 28.7243 15.5769 29.3141 16.1173 29.7396C16.6577 30.165 17.3219 30.403 18.0094 30.4174C19.0014 30.4174 20.3225 29.9773 20.9795 27.8823C21.3621 26.3681 21.622 24.8254 21.7565 23.2694C21.9115 22.0164 22.0875 20.5954 22.3365 18.9484C22.6358 17.1184 23.2156 15.3455 24.0555 13.6923C25.0678 11.8121 25.6212 9.71922 25.6705 7.58436C25.704 5.68325 25.0615 3.83197 23.8575 2.36037ZM20.7405 18.7094C19.6945 25.6094 19.9045 28.8093 18.0055 28.8093C14.8655 28.8093 16.9294 19.1904 12.8354 19.1904C8.74144 19.1904 10.8065 28.8093 7.66546 28.8093C5.76546 28.8093 5.97647 25.6094 4.93047 18.7094C4.13047 13.4654 1.61345 11.8653 1.61345 7.58534C1.61345 4.39934 3.58449 1.61433 7.10149 1.61433C9.93549 1.61433 10.6404 2.73738 12.8354 2.73738C15.0304 2.73738 15.7354 1.61433 18.5694 1.61433C22.0864 1.61433 24.0575 4.39934 24.0575 7.58534C24.0565 11.8653 21.5344 13.4653 20.7394 18.7083L20.7405 18.7094Z" fill="white"/>
</svg>
