<svg width="39" height="29" viewBox="0 0 39 29" fill="none" xmlns="http://www.w3.org/2000/svg">
<path d="M6.56997 22.3799H3.24997C2.42997 22.3799 1.72997 21.6899 1.72997 20.8599V3.34987C1.72997 2.50987 2.41997 1.73987 3.24997 1.73987C16.86 1.73987 24.09 1.83987 31.01 1.70987C33.61 1.65987 38.01 3.69987 38.01 13.2399V20.8499C38.01 21.6799 37.31 22.3699 36.49 22.3699H33.16M26.41 22.3699H13.32M1.71997 12.8899C5.66997 12.8899 35.1 12.8899 37.89 12.8699M13.66 2.85987C13.66 3.85987 13.66 11.3399 13.65 12.0499M25.64 2.85987C25.64 3.85987 25.64 11.3399 25.63 12.0499M29.79 21.2099C31.52 21.2099 32.92 22.6099 32.92 24.3399C32.92 26.0699 31.52 27.4699 29.79 27.4699C28.06 27.4699 26.66 26.0699 26.66 24.3399C26.66 22.6099 28.06 21.2099 29.79 21.2099ZM9.94997 21.2099C11.68 21.2099 13.08 22.6099 13.08 24.3399C13.08 26.0699 11.68 27.4699 9.94997 27.4699C8.21997 27.4699 6.81997 26.0699 6.81997 24.3399C6.81997 22.6099 8.21997 21.2099 9.94997 21.2099Z" stroke="white" stroke-width="1.5" stroke-linecap="round" stroke-linejoin="round"/>
</svg>
