<svg width="56" height="37" viewBox="0 0 56 37" fill="none" xmlns="http://www.w3.org/2000/svg">
<path d="M25.4681 33.1183C25.4681 33.1183 31.814 36.9389 34.4575 32.4465M28.4778 29.4516C28.4778 29.4516 34.5849 33.4178 36.241 32.4465C37.8892 31.4752 37.8892 30.7548 37.8892 29.6458M8.10242 17.7552L11.6775 22.3043M30.8506 25.2992C30.8506 25.2992 40.7954 34.1382 40.7954 26.0438M32.9845 21.1468C32.9845 21.1468 41.5359 28.0998 43.5663 26.0358C43.5663 26.0358 46.8945 23.3322 41.7509 20.313C36.6073 17.2939 28.2549 11.6197 28.2549 11.6197L25.9379 12.2349C25.9379 12.2349 24.0747 15.2541 20.5554 15.8369C19.5123 16.0068 18.6683 14.9708 19.0187 13.959C19.5681 12.3563 20.7783 9.91989 23.4457 7.20019C23.4457 7.20019 26.5828 4.41573 34.983 6.40694C38.0803 7.06258 39.5772 8.08247 41.7509 6.80356M48.471 18.6537C48.471 18.6537 44.2351 22.0129 43.9803 22.1586M14.6474 6.23696C14.6474 6.23696 18.6604 9.21568 21.9488 8.87572M11.2755 1.9326L15.6404 4.49446L6.16527 21.1781L1.80042 18.6162L11.2755 1.9326ZM54.2025 18.4859L49.8376 21.0477L40.3625 4.36411L44.7274 1.80225L54.2025 18.4859ZM11.4784 26.06C10.5468 25.2911 10.4035 23.8988 11.1599 22.9518L11.8845 22.0452C12.6409 21.0982 14.0104 20.9525 14.942 21.7215C15.8736 22.4904 16.0169 23.8827 15.2605 24.8297L14.5359 25.7363C13.7795 26.6833 12.41 26.829 11.4784 26.06ZM14.7509 28.9983C13.8193 28.2293 13.676 26.8371 14.4324 25.8901L17.5934 21.9238C18.3498 20.9768 19.7193 20.8311 20.6509 21.6C21.5825 22.369 21.7258 23.7612 20.9694 24.7083L17.8084 28.6745C17.052 29.6216 15.6825 29.7673 14.7509 28.9983ZM17.9517 32.0013C17.0201 31.2323 16.8768 29.8401 17.6332 28.8931L20.213 25.6553C20.9694 24.7083 22.3389 24.5626 23.2705 25.3315C24.2021 26.1005 24.3454 27.4927 23.589 28.4398L21.0092 31.6775C20.2528 32.6246 18.8833 32.7703 17.9517 32.0013ZM21.4153 34.6967C20.4837 33.9278 20.3404 32.5355 21.0968 31.5885L22.8804 29.3544C23.6368 28.4074 25.0063 28.2617 25.9379 29.0307C26.8695 29.7996 27.0128 31.1919 26.2564 32.1389L24.4728 34.3729C23.7164 35.32 22.3469 35.4657 21.4153 34.6967Z" stroke="#FF0000" stroke-width="2" stroke-linecap="round" stroke-linejoin="round"/>
</svg>
