<svg width="34" height="34" viewBox="0 0 34 34" fill="none" xmlns="http://www.w3.org/2000/svg">
<path d="M31.7564 2.24204C31.0474 1.52888 30.204 0.963497 29.275 0.578645C28.346 0.193793 27.3499 -0.00287806 26.3444 3.18239e-05C25.3387 -0.00273418 24.3424 0.193989 23.4133 0.578828C22.4841 0.963668 21.6406 1.52899 20.9314 2.24204L2.24036 20.933C1.52324 21.6464 0.955709 22.4957 0.571066 23.4312C0.186424 24.3667 -0.00759892 25.3696 0.000357206 26.381C0.00194436 27.3807 0.200606 28.3702 0.584967 29.293C0.969328 30.2158 1.53185 31.0538 2.24036 31.759C2.94928 32.4722 3.79267 33.0376 4.72167 33.4224C5.65067 33.8073 6.64679 34.0039 7.65235 34.001C8.65802 34.0037 9.65424 33.8069 10.5834 33.4221C11.5125 33.0372 12.3561 32.472 13.0654 31.759L31.7564 13.068C32.472 12.3536 33.0388 11.5043 33.424 10.5693C33.8092 9.63435 34.0051 8.63224 34.0004 7.62103C34.0007 6.62059 33.8025 5.63002 33.4173 4.7067C33.0321 3.78337 32.4676 2.94564 31.7564 2.24204ZM20.4564 21.761L11.7624 30.456C11.2235 30.997 10.5827 31.4258 9.87705 31.7176C9.17142 32.0094 8.41494 32.1584 7.65136 32.156C6.88807 32.1584 6.13189 32.0094 5.42658 31.7176C4.72127 31.4258 4.08084 30.997 3.54236 30.456C2.45393 29.3651 1.84266 27.8871 1.84266 26.346C1.84266 24.805 2.45393 23.3269 3.54236 22.236L12.2374 13.541L20.4564 21.761ZM32.1564 7.65402C32.1587 8.41745 32.0097 9.17377 31.7179 9.87924C31.4261 10.5847 30.9973 11.2253 30.4564 11.764L21.7614 20.459L13.5414 12.239L22.2354 3.54404C22.7742 3.00296 23.4149 2.57409 24.1206 2.28229C24.8262 1.99049 25.5828 1.84153 26.3463 1.84403C27.1096 1.84163 27.8658 1.99064 28.5711 2.28244C29.2765 2.57425 29.9169 3.00306 30.4554 3.54404C30.9966 4.08259 31.4256 4.72313 31.7176 5.42862C32.0096 6.13411 32.1587 6.89051 32.1564 7.65402Z" fill="white"/>
<path d="M5.60977 24.6212C5.73066 24.6215 5.8504 24.5979 5.96213 24.5518C6.07385 24.5056 6.17535 24.4378 6.26077 24.3523L12.9608 17.6523C13.132 17.4792 13.228 17.2457 13.228 17.0023C13.228 16.7588 13.132 16.5253 12.9608 16.3523C12.7878 16.181 12.5542 16.085 12.3108 16.085C12.0673 16.085 11.8338 16.181 11.6608 16.3523L4.96077 23.0522C4.78954 23.2252 4.69348 23.4588 4.69348 23.7022C4.69348 23.9457 4.78954 24.1793 4.96077 24.3523C5.04596 24.4376 5.14712 24.5052 5.25848 24.5514C5.36985 24.5975 5.48922 24.6213 5.60977 24.6212Z" fill="white"/>
<path d="M23.0463 4.9592L16.3463 11.6592C16.1751 11.8322 16.0791 12.0658 16.0791 12.3092C16.0791 12.5526 16.1751 12.7862 16.3463 12.9592C16.4319 13.0449 16.5335 13.1127 16.6454 13.1589C16.7574 13.2051 16.8773 13.2286 16.9984 13.2282C17.1192 13.2285 17.239 13.2049 17.3507 13.1587C17.4624 13.1126 17.5639 13.0447 17.6494 12.9592L24.3493 6.25922C24.5206 6.08621 24.6166 5.85264 24.6166 5.60922C24.6166 5.36581 24.5206 5.1322 24.3493 4.9592C24.1762 4.78705 23.942 4.69043 23.6978 4.69043C23.4537 4.69043 23.2195 4.78705 23.0463 4.9592Z" fill="white"/>
</svg>
