<svg width="34" height="39" viewBox="0 0 34 39" fill="none" xmlns="http://www.w3.org/2000/svg">
<g clip-path="url(#clip0_899_6037)">
<path d="M27.7692 25.966L28.9791 25.159C29.0709 25.0978 29.1754 25.0587 29.2848 25.0445C29.3941 25.0304 29.5054 25.0416 29.6097 25.0774C29.714 25.1132 29.8085 25.1726 29.8861 25.2509C29.9637 25.3293 30.0224 25.4244 30.0573 25.529C30.0959 25.6449 30.1636 25.749 30.2538 25.8314C30.344 25.9138 30.4537 25.9717 30.5726 25.9998C30.6915 26.0278 30.8157 26.025 30.9332 25.9916C31.0508 25.9583 31.1579 25.8954 31.2443 25.809L31.7511 25.302" stroke="white" stroke-width="2" stroke-linecap="round" stroke-linejoin="round"/>
<path d="M6.92517 25.0957H8.52817" stroke="white" stroke-width="2" stroke-linejoin="round"/>
<path d="M16.7291 11.514C16.8861 10.758 17.0292 9.92694 17.0292 9.92694L15.441 8.11096L13.2511 7.35199L12.7101 7.51898L10.8431 8.59198C10.8002 9.0186 10.8836 9.4484 11.0831 9.82794C11.8981 10.8229 13.667 10.9909 14.183 11.4739C14.7829 12.0404 15.1513 12.8094 15.2162 13.632C15.2052 14.274 14.202 14.432 13.621 14.178C13.28 14.029 10.3651 13.078 8.52112 12.454C7.47686 12.0999 6.57308 11.4212 5.94202 10.517C5.16702 9.44297 4.47307 7.40896 3.74207 7.09296L1.85315 6.52295" stroke="white" stroke-width="2" stroke-miterlimit="10" stroke-linecap="round"/>
<path d="M19.2982 13.3208L20.2892 9.22076L17.65 4.99176C17.2443 4.39805 16.6299 3.97895 15.9291 3.81781C14.1291 3.28881 7.18015 1.80778 4.05115 1.17578" stroke="white" stroke-width="2" stroke-miterlimit="10" stroke-linecap="round"/>
<path d="M8.18323 19.2426C8.95816 18.7629 9.7814 18.3661 10.6393 18.0586" stroke="white" stroke-width="2" stroke-linecap="round" stroke-linejoin="round"/>
<path d="M12.7811 19.0367C13.8112 18.7991 14.8651 18.6801 15.9222 18.6817C17.3148 18.6777 18.6997 18.8865 20.0292 19.3007" stroke="white" stroke-width="2" stroke-linecap="round" stroke-linejoin="round"/>
<path d="M12.7453 13.867C12.4648 14.6563 12.4676 15.5187 12.7536 16.306C13.0396 17.0933 13.591 17.7565 14.3127 18.1817C15.0344 18.6069 15.8817 18.7675 16.7089 18.6361C17.5362 18.5046 18.292 18.0893 18.8464 17.4613C19.4008 16.8333 19.7192 16.032 19.747 15.1947C19.7749 14.3575 19.5104 13.5367 18.999 12.8733C18.4876 12.2098 17.7613 11.7451 16.9445 11.5589C16.1278 11.3728 15.2718 11.4767 14.5234 11.853" stroke="white" stroke-width="2" stroke-linejoin="round"/>
<path d="M22.2882 18.7367C25.5882 20.4367 27.7731 23.3637 27.7731 26.6947C27.7503 27.7875 27.4965 28.8631 27.0282 29.8507C26.5599 30.8383 25.8877 31.7155 25.056 32.4247L24.3651 37.9247H22.2081L20.5912 35.5428C17.7019 36.5203 14.5805 36.5779 11.6571 35.7077L10.5001 37.9258H7.72424V34.3257C5.28624 33.3257 4.42421 31.9258 2.03821 30.3378C0.997208 29.6438 0.997192 27.6377 0.997192 25.7117L2.91223 24.8677C3.26327 23.6479 3.92437 22.5399 4.83118 21.6517L2.55725 17.9107C3.74631 17.7832 4.94868 17.9082 6.08606 18.2777C7.22343 18.6472 8.27001 19.2527 9.1571 20.0547" stroke="white" stroke-width="2" stroke-linecap="round" stroke-linejoin="round"/>
</g>
<defs>
<clipPath id="clip0_899_6037">
<rect width="33.167" height="38.923" fill="white"/>
</clipPath>
</defs>
</svg>
