<svg width="185" height="48" viewBox="0 0 185 48" fill="none" xmlns="http://www.w3.org/2000/svg">
<path d="M31.8363 22.9663C31.7733 22.0265 31.5214 21.0867 31.0176 20.2723L26.7355 12.8169C26.4207 12.253 26.1688 11.6265 26.0428 11L25.8539 11.3133C24.7834 13.1301 24.7834 15.4482 25.8539 17.2651L29.3174 23.2169C30.3879 25.0337 30.3879 27.3518 29.3174 29.1687L29.1285 29.4819C29.0025 28.8554 28.7506 28.2289 28.4358 27.6651L25.2872 22.2145L23.272 18.706C22.9572 18.1422 22.7053 17.5157 22.5793 16.8892L22.3904 17.2024C21.3199 19.0193 21.3199 21.2747 22.3904 23.1542L25.8539 29.106C26.9244 30.9229 26.9244 33.241 25.8539 35.0578L25.665 35.3711C25.539 34.7446 25.2872 34.1181 24.9723 33.5542L20.6272 26.0988C20.0605 25.0964 19.8086 23.9687 19.8086 22.841C15.2116 24.0313 12 26.6 12 29.5446C12 33.6795 18.1713 37 25.7909 37C33.4106 37 39.5819 33.6795 39.5819 29.5446C39.6448 26.7253 36.4962 24.1566 31.8363 22.9663ZM44.8715 35.6843C44.9345 34.6193 45.0605 33.9301 45.3753 33.053C46.8237 33.7422 48.7128 34.0554 50.0982 34.0554C52.4912 34.0554 53.8766 33.3036 53.8766 31.7373C53.8766 30.2337 52.869 29.5446 50.4761 28.4795L49.1537 27.9783C46.6977 26.9133 45.0605 25.5349 45.0605 22.841C45.0605 19.8964 47.1385 18.0169 51.2947 18.0169C52.995 18.0169 54.5693 18.2675 56.0176 18.7687C55.9547 19.7711 55.7657 20.5855 55.5139 21.3373C54.1285 20.8361 52.4282 20.5855 51.2317 20.5855C48.9647 20.5855 47.9572 21.4627 47.9572 22.841C47.9572 24.1566 48.9647 24.9711 50.7909 25.7229L52.1763 26.2867C55.4509 27.6651 56.8363 29.1687 56.8363 31.6747C56.8363 34.6193 54.5693 36.6867 50.1612 36.6867C48.0831 36.6867 46.3199 36.3735 44.8715 35.6843ZM70.7532 23.3422V36.2482H68.1083L67.9824 34.6819C67.2267 35.8096 66.1562 36.5614 64.33 36.5614C60.9295 36.5614 58.5995 34.0554 58.5995 29.7325C58.5995 25.2217 61.0554 22.5904 65.8413 22.5904C67.7305 22.653 69.3048 22.841 70.7532 23.3422ZM67.9194 33.3036V25.2217C67.3526 25.0964 66.66 25.0964 65.8413 25.0964C62.8816 25.0964 61.4962 26.9133 61.4962 29.7952C61.4962 32.4265 62.5668 34.306 65.0856 34.306C66.2821 34.2434 67.1637 33.8675 67.9194 33.3036ZM85.3627 27.6024V36.2482H82.529V28.1036C82.529 26.0361 81.8363 25.0964 79.0025 25.0964C78.3098 25.0964 77.5542 25.159 76.7355 25.2843V36.2482H73.9018V23.3422C75.728 22.9036 77.7431 22.5904 79.0655 22.5904C83.8514 22.653 85.3627 24.4699 85.3627 27.6024ZM93.2972 34.1807C94.1159 34.1807 94.9345 34.0554 95.5013 33.8048C95.4383 34.5566 95.3124 35.4337 95.1864 36.1855C94.4307 36.4988 93.5491 36.6241 92.7935 36.6241C90.0227 36.6241 88.2594 35.3711 88.2594 32.2386V18.6434C89.1411 18.3301 90.2116 18.2048 91.0932 18.2048V23.0916H95.6272C95.5642 23.9687 95.5013 24.7831 95.3753 25.5349H91.0932V31.8627C91.0932 33.4916 91.9118 34.1807 93.2972 34.1807ZM108.599 23.3422V36.2482H105.955L105.829 34.6819C105.073 35.8096 104.003 36.5614 102.176 36.5614C98.7758 36.5614 96.4459 34.0554 96.4459 29.7325C96.4459 25.2217 98.9018 22.5904 103.688 22.5904C105.577 22.653 107.088 22.841 108.599 23.3422ZM105.703 33.3036V25.2217C105.136 25.0964 104.443 25.0964 103.625 25.0964C100.665 25.0964 99.2796 26.9133 99.2796 29.7952C99.2796 32.4265 100.35 34.306 102.869 34.306C104.065 34.2434 105.01 33.8675 105.703 33.3036ZM123.209 27.6024V36.2482H120.312V28.1036C120.312 26.0361 119.62 25.0964 116.786 25.0964C116.093 25.0964 115.338 25.159 114.519 25.2843V36.2482H111.685V23.3422C113.511 22.9036 115.526 22.5904 116.849 22.5904C121.635 22.653 123.209 24.4699 123.209 27.6024ZM137.63 18.2048V36.2482H134.985L134.859 34.6193C134.103 35.8096 133.033 36.5614 131.144 36.5614C127.743 36.5614 125.413 34.0554 125.413 29.7325C125.413 25.2217 127.869 22.5904 132.655 22.5904C133.411 22.5904 134.103 22.653 134.796 22.7783V18.5181C135.678 18.2675 136.685 18.2048 137.63 18.2048ZM134.796 33.3036V25.347C134.04 25.2217 133.285 25.0964 132.529 25.0964C129.695 25.0964 128.373 26.8506 128.373 29.7952C128.373 32.4265 129.443 34.306 131.962 34.306C133.096 34.2434 134.04 33.8675 134.796 33.3036ZM151.987 30.7349H142.856C143.234 33.053 144.557 34.1181 147.139 34.1181C148.713 34.1181 150.287 33.8048 151.673 33.1157C151.547 33.8675 151.421 34.8699 151.232 35.6843C149.909 36.2482 148.587 36.4988 147.013 36.4988C142.227 36.4988 139.96 33.8675 139.96 29.4819C139.96 25.6602 141.723 22.5904 146.257 22.5904C150.35 22.5904 152.113 25.2217 152.113 28.4795C152.113 29.3566 152.113 29.9831 151.987 30.7349ZM142.856 28.3542H149.28C149.28 26.2241 148.146 24.9711 146.194 24.9711C144.116 25.0337 143.045 26.1614 142.856 28.3542ZM162 22.7783C162 23.6554 161.874 24.6578 161.748 25.2217C161.055 25.159 160.426 25.0964 159.607 25.0964C158.914 25.0964 158.222 25.159 157.529 25.2217V36.2482H154.695V23.3422C155.892 22.9036 157.97 22.5904 159.544 22.5904C160.363 22.653 161.37 22.653 162 22.7783Z" fill="#EA1D25"/>
</svg>
