<svg width="168" height="41" viewBox="0 0 168 41" fill="none" xmlns="http://www.w3.org/2000/svg">
<g clip-path="url(#clip0_2319_35)">
<g clip-path="url(#clip1_2319_35)">
<path d="M26.8193 10.6058V30.1603H22.9523L22.7326 27.6995C21.4583 29.4132 19.6127 30.5996 17.064 30.5996C12.494 30.5996 10.0771 28.1829 10.0771 23.3491V10.6058H14.2517V22.3824C14.2517 25.5902 15.3503 27.0403 18.5141 27.0403C20.0082 27.0403 21.5022 26.5569 22.6887 25.5463V10.6058H26.8193Z" fill="#EC0000"/>
<path d="M48.1318 17.4608V30.2041H43.9572V18.1639C43.9572 15.1758 42.9905 13.7257 38.816 13.7257C37.8492 13.7257 36.6627 13.8575 35.5202 14.0333V30.1602H31.3457V11.2209C33.9822 10.5618 36.9264 10.1663 38.9038 10.1663C45.8907 10.1663 48.1318 12.8468 48.1318 17.4608Z" fill="#EC0000"/>
<path d="M56.6569 10.6058H52.4824V30.1603H56.6569V10.6058Z" fill="#EC0000"/>
<path d="M99.2371 22.0748H85.9224C86.4499 25.4584 88.4273 27.0842 92.1184 27.0842C94.4034 27.0842 96.6885 26.601 98.7977 25.6342C98.6659 26.7328 98.4022 28.1829 98.1386 29.4132C96.249 30.2921 94.2277 30.6437 91.9865 30.6437C84.9997 30.6437 81.6602 26.7767 81.6602 20.3171C81.6602 14.6925 84.2528 10.2103 90.8881 10.2103C96.8203 10.2103 99.413 14.1212 99.413 18.867C99.4568 20.0095 99.3689 20.9763 99.2371 22.0748ZM85.8786 18.5594H95.2823C95.2823 15.4395 93.6125 13.6378 90.7562 13.6378C87.7682 13.6378 86.1863 15.3516 85.8786 18.5594Z" fill="#EC0000"/>
<path d="M113.826 10.3422C113.826 11.5725 113.695 13.1105 113.431 13.9015C112.464 13.7697 111.454 13.7697 110.267 13.7697C109.256 13.7697 108.202 13.8576 107.191 13.9894V30.2041H103.061V11.265C104.862 10.6498 107.85 10.2103 110.179 10.2103C111.454 10.1664 112.904 10.2103 113.826 10.3422Z" fill="#EC0000"/>
<path d="M114.925 29.3252C115.013 27.7872 115.188 26.6887 115.496 25.8099C117.254 26.6887 119.671 27.1281 121.472 27.1281C123.845 27.1281 125.164 26.469 125.164 24.8871C125.164 23.4809 124.021 22.9097 122.219 22.3384L120.286 21.7232C116.463 20.4928 115.189 18.5154 115.189 15.747C115.189 12.2756 117.649 10.1224 122.439 10.1224C124.812 10.1224 126.877 10.386 128.635 11.0452C128.547 12.1437 128.415 13.1544 128.02 14.3848C126.218 13.8136 124.504 13.5938 122.527 13.5938C119.89 13.5938 119.187 14.4288 119.187 15.6152C119.187 17.0214 120.154 17.6805 122.131 18.3397L124.153 18.9988C127.756 20.1413 129.294 21.8111 129.294 24.7992C129.294 28.2268 126.57 30.6435 121.56 30.6435C118.792 30.5996 116.726 30.248 114.925 29.3252Z" fill="#EC0000"/>
<path d="M136.72 10.6058H132.546V30.1603H136.72V10.6058Z" fill="#EC0000"/>
<path d="M157.988 11.2209V30.1602H154.165L153.945 27.8752C152.891 29.545 151.265 30.5996 148.584 30.5996C143.575 30.5996 140.235 26.9524 140.235 20.5807C140.235 13.9014 143.795 10.1224 150.782 10.1224C153.55 10.1663 155.791 10.4739 157.988 11.2209ZM153.814 25.8538V13.9454C152.935 13.8136 152.012 13.7257 150.826 13.7257C146.519 13.7257 144.498 16.3622 144.498 20.6247C144.498 24.4916 146.036 27.2161 149.771 27.2161C151.397 27.2161 152.715 26.6888 153.814 25.8538Z" fill="#EC0000"/>
<path d="M60.3477 10.2103L79.243 17.7245V22.9976L60.3477 30.5557V26.1176L75.1563 20.2292L60.3477 14.5607V10.2103Z" fill="#EC0000"/>
</g>
</g>
<defs>
<clipPath id="clip0_2319_35">
<rect width="148" height="20.72" fill="white" transform="translate(10 10)"/>
</clipPath>
<clipPath id="clip1_2319_35">
<rect width="147.977" height="20.72" fill="white" transform="translate(10.0117 10)"/>
</clipPath>
</defs>
</svg>
