<svg xmlns="http://www.w3.org/2000/svg" xmlns:xlink="http://www.w3.org/1999/xlink" width="38.272" height="14" viewBox="0 0 38.272 14">
  <defs>
    <linearGradient id="linear-gradient" x1="1" y1="0.437" x2="0" y2="0.5" gradientUnits="objectBoundingBox">
      <stop offset="0" stop-color="#f0fe00"/>
      <stop offset="1" stop-color="#00dc89"/>
    </linearGradient>
  </defs>
  <g id="LOGO-OUZZI" transform="translate(0 -0.1)">
    <path id="Caminho_18024" data-name="Caminho 18024" d="M132.569,126.333c-1.311.23-.247-1.651,1.072-1.855a22.1,22.1,0,0,1,5.472-.145c2.051.23-.264,2.34-.894,2.145A15.11,15.11,0,0,0,132.569,126.333Z" transform="translate(-120.739 -113.561)" fill="url(#linear-gradient)"/>
    <path id="Caminho_18025" data-name="Caminho 18025" d="M22.153,3.887c0-.672-1.191-1.532-2.408-1.532-.289,0-.443.145-.443.357,0,1.966-1.447,5.26-2.655,5.26a.328.328,0,0,1-.357-.374c0-1.047,1.106-2.366,1.106-3.455a2.106,2.106,0,0,0-2.051-1.779c-.4,0-.6.145-.6.357a8.178,8.178,0,0,1-.868,2.885,14.9,14.9,0,0,1-1.03,1.157,8.363,8.363,0,0,0,.247-1.974C13.089,1.9,11.642.1,8.672.1,4.843.091,2.979,2.483,2.979,3.947A7.6,7.6,0,0,0,0,9.87c0,2.221,1.634,4.23,4.689,4.23,3.243,0,6.17-2.562,7.557-5.634a2.2,2.2,0,0,0,.8-.323c0,.043-.009.085-.009.128A1.6,1.6,0,0,0,14.8,9.921a6.293,6.293,0,0,0,3.123-1.174,3.443,3.443,0,0,0,2.494,1.174c.213,0,.315-.1.315-.247a4.932,4.932,0,0,1-.145-1.03C20.587,6.781,22.153,4.542,22.153,3.887ZM5.03,12.934c-.962,0-1.549-.834-1.549-2.221A6.977,6.977,0,0,1,4.613,6.568a2.844,2.844,0,0,0,.877.272c.213,0,.332-.085.332-.247a7.343,7.343,0,0,1-.23-1.421c0-1.37,1.072-3.8,2.664-3.8.9,0,1.379.877,1.379,2.681C9.634,8.032,7.285,12.934,5.03,12.934Z" fill="#0b2740"/>
    <path id="Caminho_18026" data-name="Caminho 18026" d="M237.119,74.995a8.922,8.922,0,0,0,1.574-.23.3.3,0,0,1,.315.332,5.775,5.775,0,0,1-1.532,2.808c-1.217,1.047-3.438,1.8-3.438,2.119,0,.085.06.128.145.128,3.14,0,3.285-.672,3.643-.672.145,0,.255.145.255.4a2.51,2.51,0,0,1-2.579,2.349c-1.132,0-2.179-.485-3.225-.485a10.947,10.947,0,0,0-1.447.23c-.17,0-.23-.187-.23-.332a3.029,3.029,0,0,1,1.26-2.723c.919-.715,3.787-1.8,3.787-1.923a.093.093,0,0,0-.1-.1,9.522,9.522,0,0,0-3.37.357c-.145,0-.23-.1-.23-.289a2.19,2.19,0,0,1,1.923-2.366C234.813,74.578,235.928,74.995,237.119,74.995Z" transform="translate(-210.975 -68.154)" fill="#0b2740"/>
    <path id="Caminho_18027" data-name="Caminho 18027" d="M376.149,82.455c0,.315-.06.5-.4.5-.987,0-2.349-.247-2.349-1,0-1.506,2.094-4.528,2.094-6.2,0-.213.187-.357.587-.357a1.942,1.942,0,0,1,2.034,1.532C378.115,78.14,376.149,80.864,376.149,82.455Z" transform="translate(-341.622 -68.892)" fill="#0b2740"/>
    <path id="Caminho_18028" data-name="Caminho 18028" d="M414.438,26.7a1.227,1.227,0,0,1,1.319,1.26,2.015,2.015,0,0,1-1.779,2.077A1.287,1.287,0,0,1,412.6,28.8,2.014,2.014,0,0,1,414.438,26.7Z" transform="translate(-377.486 -24.336)" fill="#0b2740"/>
    <path id="Caminho_18029" data-name="Caminho 18029" d="M310.238,60.43c.043-.094.085-.213.136-.332a7.094,7.094,0,0,1-3.191.477c-.085,0-.145-.043-.145-.128,0-.315,2.221-1.072,3.438-2.119a5.74,5.74,0,0,0,1.532-2.808.3.3,0,0,0-.315-.332,8.776,8.776,0,0,1-1.574.23c-1.191,0-2.306-.417-3.243-.417A2.072,2.072,0,0,0,305,56.8l.1-.034a1.662,1.662,0,0,1,.417-.1.372.372,0,0,1,.417.289,1.852,1.852,0,0,1-.017.519,13.908,13.908,0,0,1,2.621-.17.093.093,0,0,1,.1.1c0,.111-2.213.962-3.387,1.651a4.012,4.012,0,0,1-1.4,1.489,3.588,3.588,0,0,0-.255,1.243,1.955,1.955,0,0,0,.417-.153,1.846,1.846,0,0,0,.281-.162.624.624,0,0,1,.323-.119.392.392,0,0,1,.392.4,1.843,1.843,0,0,1-.009.306v.1c.085-.009.17-.009.264-.009,1.047,0,2.094.485,3.225.485a2.89,2.89,0,0,0,.919-.153A15.538,15.538,0,0,1,310.238,60.43Z" transform="translate(-277.762 -50.228)" fill="#0b2740"/>
  </g>
</svg>
