<svg width="21" height="22" viewBox="0 0 21 22" fill="none" xmlns="http://www.w3.org/2000/svg">
<path d="M8.32422 15.6942C8.78971 15.9305 9.20866 16.2206 9.58105 16.5643C9.95345 16.9081 10.2757 17.2948 10.5479 17.7245C10.82 18.1541 11.0241 18.6125 11.1602 19.0995C11.2962 19.5864 11.3678 20.0949 11.375 20.6248H10C10 20.0591 9.89258 19.5256 9.67773 19.0243C9.46289 18.523 9.16927 18.0861 8.79688 17.7137C8.42448 17.3413 7.98405 17.0441 7.47559 16.8221C6.96712 16.6001 6.43359 16.4927 5.875 16.4998C5.30208 16.4998 4.76855 16.6073 4.27441 16.8221C3.78027 17.037 3.34342 17.3306 2.96387 17.703C2.58431 18.0754 2.28711 18.5158 2.07227 19.0243C1.85742 19.5327 1.75 20.0663 1.75 20.6248H0.375C0.375 20.1021 0.446615 19.5972 0.589844 19.1102C0.733073 18.6232 0.937174 18.1649 1.20215 17.7352C1.46712 17.3055 1.78581 16.9188 2.1582 16.575C2.5306 16.2313 2.95312 15.9377 3.42578 15.6942C2.89583 15.3003 2.48405 14.8133 2.19043 14.2332C1.89681 13.6532 1.75 13.0337 1.75 12.3748C1.75 11.8091 1.85742 11.2756 2.07227 10.7743C2.28711 10.273 2.58073 9.83611 2.95312 9.46371C3.32552 9.09132 3.76237 8.79412 4.26367 8.57211C4.76497 8.35011 5.30208 8.24269 5.875 8.24985C6.53385 8.24985 7.15332 8.39666 7.7334 8.69028C8.31348 8.9839 8.80046 9.39568 9.19434 9.92563C9.46647 9.38852 9.8138 8.9087 10.2363 8.48618C10.6589 8.06365 11.1387 7.71632 11.6758 7.44418C11.1458 7.0503 10.734 6.56332 10.4404 5.98325C10.1468 5.40317 10 4.7837 10 4.12485C10 3.55909 10.1074 3.02556 10.3223 2.52426C10.5371 2.02296 10.8307 1.58611 11.2031 1.21371C11.5755 0.841319 12.0124 0.544118 12.5137 0.322113C13.015 0.100108 13.5521 -0.00731405 14.125 -0.000152588C14.6908 -0.000152588 15.2243 0.107269 15.7256 0.322113C16.2269 0.536957 16.6637 0.830577 17.0361 1.20297C17.4085 1.57537 17.7057 2.0158 17.9277 2.52426C18.1497 3.03272 18.2572 3.56625 18.25 4.12485C18.25 4.7837 18.1032 5.40317 17.8096 5.98325C17.516 6.56332 17.1042 7.0503 16.5742 7.44418C17.0397 7.68051 17.4587 7.97055 17.8311 8.3143C18.2035 8.65805 18.5257 9.04477 18.7979 9.47446C19.07 9.90414 19.2741 10.3625 19.4102 10.8495C19.5462 11.3364 19.6178 11.8449 19.625 12.3748H18.25C18.25 11.8091 18.1426 11.2756 17.9277 10.7743C17.7129 10.273 17.4193 9.83611 17.0469 9.46371C16.6745 9.09132 16.234 8.79412 15.7256 8.57211C15.2171 8.35011 14.6836 8.24269 14.125 8.24985C13.5521 8.24985 13.0186 8.35727 12.5244 8.57211C12.0303 8.78696 11.5934 9.08058 11.2139 9.45297C10.8343 9.82537 10.5371 10.2658 10.3223 10.7743C10.1074 11.2827 10 11.8163 10 12.3748C10 13.0337 9.85319 13.6532 9.55957 14.2332C9.26595 14.8133 8.85417 15.3003 8.32422 15.6942ZM11.375 4.12485C11.375 4.5044 11.4466 4.8589 11.5898 5.18832C11.7331 5.51775 11.93 5.81137 12.1807 6.06918C12.4313 6.327 12.7214 6.52394 13.0508 6.66C13.3802 6.79607 13.7383 6.86769 14.125 6.87485C14.5046 6.87485 14.859 6.80323 15.1885 6.66C15.5179 6.51677 15.8115 6.31983 16.0693 6.06918C16.3271 5.81853 16.5241 5.52849 16.6602 5.19907C16.7962 4.86964 16.8678 4.51157 16.875 4.12485C16.875 3.74529 16.8034 3.3908 16.6602 3.06137C16.5169 2.73194 16.32 2.43832 16.0693 2.18051C15.8187 1.9227 15.5286 1.72576 15.1992 1.58969C14.8698 1.45362 14.5117 1.38201 14.125 1.37485C13.7454 1.37485 13.391 1.44646 13.0615 1.58969C12.7321 1.73292 12.4385 1.92986 12.1807 2.18051C11.9229 2.43116 11.7259 2.7212 11.5898 3.05063C11.4538 3.38006 11.3822 3.73813 11.375 4.12485ZM3.125 12.3748C3.125 12.7544 3.19661 13.1089 3.33984 13.4383C3.48307 13.7678 3.68001 14.0614 3.93066 14.3192C4.18132 14.577 4.47135 14.7739 4.80078 14.91C5.13021 15.0461 5.48828 15.1177 5.875 15.1248C6.25456 15.1248 6.60905 15.0532 6.93848 14.91C7.2679 14.7668 7.56152 14.5698 7.81934 14.3192C8.07715 14.0685 8.27409 13.7785 8.41016 13.4491C8.54622 13.1196 8.61784 12.7616 8.625 12.3748C8.625 11.9953 8.55339 11.6408 8.41016 11.3114C8.26693 10.9819 8.06999 10.6883 7.81934 10.4305C7.56869 10.1727 7.27865 9.97576 6.94922 9.83969C6.61979 9.70362 6.26172 9.63201 5.875 9.62485C5.49544 9.62485 5.14095 9.69646 4.81152 9.83969C4.4821 9.98292 4.18848 10.1799 3.93066 10.4305C3.67285 10.6812 3.47591 10.9712 3.33984 11.3006C3.20378 11.6301 3.13216 11.9881 3.125 12.3748ZM19.2812 21.9998L16.1875 19.5829L13.0938 21.9998L14.3398 18.1327L11.375 15.8123H15.0811L16.1875 12.3748L17.2939 15.8123H21L18.0352 18.1327L19.2812 21.9998Z" fill="#EC0000"/>
</svg>
